<?xml version="1.0" encoding="utf-8" standalone="no"?>
<!DOCTYPE svg PUBLIC "-//W3C//DTD SVG 1.1//EN"
  "http://www.w3.org/Graphics/SVG/1.1/DTD/svg11.dtd">
<!-- Created with matplotlib (https://matplotlib.org/) -->
<svg height="345.6pt" version="1.1" viewBox="0 0 460.8 345.6" width="460.8pt" xmlns="http://www.w3.org/2000/svg" xmlns:xlink="http://www.w3.org/1999/xlink">
 <metadata>
  <rdf:RDF xmlns:cc="http://creativecommons.org/ns#" xmlns:dc="http://purl.org/dc/elements/1.1/" xmlns:rdf="http://www.w3.org/1999/02/22-rdf-syntax-ns#">
   <cc:Work>
    <dc:type rdf:resource="http://purl.org/dc/dcmitype/StillImage"/>
    <dc:date>2022-04-29T14:12:46.193929</dc:date>
    <dc:format>image/svg+xml</dc:format>
    <dc:creator>
     <cc:Agent>
      <dc:title>Matplotlib v3.3.4, https://matplotlib.org/</dc:title>
     </cc:Agent>
    </dc:creator>
   </cc:Work>
  </rdf:RDF>
 </metadata>
 <defs>
  <style type="text/css">*{stroke-linecap:butt;stroke-linejoin:round;}</style>
 </defs>
 <g id="figure_1">
  <g id="patch_1">
   <path d="M 0 345.6 
L 460.8 345.6 
L 460.8 0 
L 0 0 
z
" style="fill:#ffffff;"/>
  </g>
  <g id="axes_1">
   <g id="patch_2">
    <path d="M 42.765865 137.71551 
L 457.79976 137.71551 
L 457.79976 3.00024 
L 42.765865 3.00024 
z
" style="fill:#ffffff;"/>
   </g>
   <g id="matplotlib.axis_1">
    <g id="xtick_1">
     <g id="line2d_1">
      <defs>
       <path d="M 0 0 
L 0 3.5 
" id="ma004fd5a9d" style="stroke:#000000;stroke-width:0.8;"/>
      </defs>
      <g>
       <use style="stroke:#000000;stroke-width:0.8;" x="61.631042" xlink:href="#ma004fd5a9d" y="137.71551"/>
      </g>
     </g>
     <g id="text_1">
      <!-- 0 -->
      <g transform="translate(58.449792 152.313947)scale(0.1 -0.1)">
       <defs>
        <path d="M 31.78125 66.40625 
Q 24.171875 66.40625 20.328125 58.90625 
Q 16.5 51.421875 16.5 36.375 
Q 16.5 21.390625 20.328125 13.890625 
Q 24.171875 6.390625 31.78125 6.390625 
Q 39.453125 6.390625 43.28125 13.890625 
Q 47.125 21.390625 47.125 36.375 
Q 47.125 51.421875 43.28125 58.90625 
Q 39.453125 66.40625 31.78125 66.40625 
z
M 31.78125 74.21875 
Q 44.046875 74.21875 50.515625 64.515625 
Q 56.984375 54.828125 56.984375 36.375 
Q 56.984375 17.96875 50.515625 8.265625 
Q 44.046875 -1.421875 31.78125 -1.421875 
Q 19.53125 -1.421875 13.0625 8.265625 
Q 6.59375 17.96875 6.59375 36.375 
Q 6.59375 54.828125 13.0625 64.515625 
Q 19.53125 74.21875 31.78125 74.21875 
z
" id="DejaVuSans-48"/>
       </defs>
       <use xlink:href="#DejaVuSans-48"/>
      </g>
     </g>
    </g>
    <g id="xtick_2">
     <g id="line2d_2">
      <g>
       <use style="stroke:#000000;stroke-width:0.8;" x="137.85398" xlink:href="#ma004fd5a9d" y="137.71551"/>
      </g>
     </g>
     <g id="text_2">
      <!-- 20 -->
      <g transform="translate(131.49148 152.313947)scale(0.1 -0.1)">
       <defs>
        <path d="M 19.1875 8.296875 
L 53.609375 8.296875 
L 53.609375 0 
L 7.328125 0 
L 7.328125 8.296875 
Q 12.9375 14.109375 22.625 23.890625 
Q 32.328125 33.6875 34.8125 36.53125 
Q 39.546875 41.84375 41.421875 45.53125 
Q 43.3125 49.21875 43.3125 52.78125 
Q 43.3125 58.59375 39.234375 62.25 
Q 35.15625 65.921875 28.609375 65.921875 
Q 23.96875 65.921875 18.8125 64.3125 
Q 13.671875 62.703125 7.8125 59.421875 
L 7.8125 69.390625 
Q 13.765625 71.78125 18.9375 73 
Q 24.125 74.21875 28.421875 74.21875 
Q 39.75 74.21875 46.484375 68.546875 
Q 53.21875 62.890625 53.21875 53.421875 
Q 53.21875 48.921875 51.53125 44.890625 
Q 49.859375 40.875 45.40625 35.40625 
Q 44.1875 33.984375 37.640625 27.21875 
Q 31.109375 20.453125 19.1875 8.296875 
z
" id="DejaVuSans-50"/>
       </defs>
       <use xlink:href="#DejaVuSans-50"/>
       <use x="63.623047" xlink:href="#DejaVuSans-48"/>
      </g>
     </g>
    </g>
    <g id="xtick_3">
     <g id="line2d_3">
      <g>
       <use style="stroke:#000000;stroke-width:0.8;" x="214.076917" xlink:href="#ma004fd5a9d" y="137.71551"/>
      </g>
     </g>
     <g id="text_3">
      <!-- 40 -->
      <g transform="translate(207.714417 152.313947)scale(0.1 -0.1)">
       <defs>
        <path d="M 37.796875 64.3125 
L 12.890625 25.390625 
L 37.796875 25.390625 
z
M 35.203125 72.90625 
L 47.609375 72.90625 
L 47.609375 25.390625 
L 58.015625 25.390625 
L 58.015625 17.1875 
L 47.609375 17.1875 
L 47.609375 0 
L 37.796875 0 
L 37.796875 17.1875 
L 4.890625 17.1875 
L 4.890625 26.703125 
z
" id="DejaVuSans-52"/>
       </defs>
       <use xlink:href="#DejaVuSans-52"/>
       <use x="63.623047" xlink:href="#DejaVuSans-48"/>
      </g>
     </g>
    </g>
    <g id="xtick_4">
     <g id="line2d_4">
      <g>
       <use style="stroke:#000000;stroke-width:0.8;" x="290.299855" xlink:href="#ma004fd5a9d" y="137.71551"/>
      </g>
     </g>
     <g id="text_4">
      <!-- 60 -->
      <g transform="translate(283.937355 152.313947)scale(0.1 -0.1)">
       <defs>
        <path d="M 33.015625 40.375 
Q 26.375 40.375 22.484375 35.828125 
Q 18.609375 31.296875 18.609375 23.390625 
Q 18.609375 15.53125 22.484375 10.953125 
Q 26.375 6.390625 33.015625 6.390625 
Q 39.65625 6.390625 43.53125 10.953125 
Q 47.40625 15.53125 47.40625 23.390625 
Q 47.40625 31.296875 43.53125 35.828125 
Q 39.65625 40.375 33.015625 40.375 
z
M 52.59375 71.296875 
L 52.59375 62.3125 
Q 48.875 64.0625 45.09375 64.984375 
Q 41.3125 65.921875 37.59375 65.921875 
Q 27.828125 65.921875 22.671875 59.328125 
Q 17.53125 52.734375 16.796875 39.40625 
Q 19.671875 43.65625 24.015625 45.921875 
Q 28.375 48.1875 33.59375 48.1875 
Q 44.578125 48.1875 50.953125 41.515625 
Q 57.328125 34.859375 57.328125 23.390625 
Q 57.328125 12.15625 50.6875 5.359375 
Q 44.046875 -1.421875 33.015625 -1.421875 
Q 20.359375 -1.421875 13.671875 8.265625 
Q 6.984375 17.96875 6.984375 36.375 
Q 6.984375 53.65625 15.1875 63.9375 
Q 23.390625 74.21875 37.203125 74.21875 
Q 40.921875 74.21875 44.703125 73.484375 
Q 48.484375 72.75 52.59375 71.296875 
z
" id="DejaVuSans-54"/>
       </defs>
       <use xlink:href="#DejaVuSans-54"/>
       <use x="63.623047" xlink:href="#DejaVuSans-48"/>
      </g>
     </g>
    </g>
    <g id="xtick_5">
     <g id="line2d_5">
      <g>
       <use style="stroke:#000000;stroke-width:0.8;" x="366.522792" xlink:href="#ma004fd5a9d" y="137.71551"/>
      </g>
     </g>
     <g id="text_5">
      <!-- 80 -->
      <g transform="translate(360.160292 152.313947)scale(0.1 -0.1)">
       <defs>
        <path d="M 31.78125 34.625 
Q 24.75 34.625 20.71875 30.859375 
Q 16.703125 27.09375 16.703125 20.515625 
Q 16.703125 13.921875 20.71875 10.15625 
Q 24.75 6.390625 31.78125 6.390625 
Q 38.8125 6.390625 42.859375 10.171875 
Q 46.921875 13.96875 46.921875 20.515625 
Q 46.921875 27.09375 42.890625 30.859375 
Q 38.875 34.625 31.78125 34.625 
z
M 21.921875 38.8125 
Q 15.578125 40.375 12.03125 44.71875 
Q 8.5 49.078125 8.5 55.328125 
Q 8.5 64.0625 14.71875 69.140625 
Q 20.953125 74.21875 31.78125 74.21875 
Q 42.671875 74.21875 48.875 69.140625 
Q 55.078125 64.0625 55.078125 55.328125 
Q 55.078125 49.078125 51.53125 44.71875 
Q 48 40.375 41.703125 38.8125 
Q 48.828125 37.15625 52.796875 32.3125 
Q 56.78125 27.484375 56.78125 20.515625 
Q 56.78125 9.90625 50.3125 4.234375 
Q 43.84375 -1.421875 31.78125 -1.421875 
Q 19.734375 -1.421875 13.25 4.234375 
Q 6.78125 9.90625 6.78125 20.515625 
Q 6.78125 27.484375 10.78125 32.3125 
Q 14.796875 37.15625 21.921875 38.8125 
z
M 18.3125 54.390625 
Q 18.3125 48.734375 21.84375 45.5625 
Q 25.390625 42.390625 31.78125 42.390625 
Q 38.140625 42.390625 41.71875 45.5625 
Q 45.3125 48.734375 45.3125 54.390625 
Q 45.3125 60.0625 41.71875 63.234375 
Q 38.140625 66.40625 31.78125 66.40625 
Q 25.390625 66.40625 21.84375 63.234375 
Q 18.3125 60.0625 18.3125 54.390625 
z
" id="DejaVuSans-56"/>
       </defs>
       <use xlink:href="#DejaVuSans-56"/>
       <use x="63.623047" xlink:href="#DejaVuSans-48"/>
      </g>
     </g>
    </g>
    <g id="xtick_6">
     <g id="line2d_6">
      <g>
       <use style="stroke:#000000;stroke-width:0.8;" x="442.74573" xlink:href="#ma004fd5a9d" y="137.71551"/>
      </g>
     </g>
     <g id="text_6">
      <!-- 100 -->
      <g transform="translate(433.20198 152.313947)scale(0.1 -0.1)">
       <defs>
        <path d="M 12.40625 8.296875 
L 28.515625 8.296875 
L 28.515625 63.921875 
L 10.984375 60.40625 
L 10.984375 69.390625 
L 28.421875 72.90625 
L 38.28125 72.90625 
L 38.28125 8.296875 
L 54.390625 8.296875 
L 54.390625 0 
L 12.40625 0 
z
" id="DejaVuSans-49"/>
       </defs>
       <use xlink:href="#DejaVuSans-49"/>
       <use x="63.623047" xlink:href="#DejaVuSans-48"/>
       <use x="127.246094" xlink:href="#DejaVuSans-48"/>
      </g>
     </g>
    </g>
    <g id="text_7">
     <!-- Generation -->
     <g transform="translate(222.389844 165.992072)scale(0.1 -0.1)">
      <defs>
       <path d="M 59.515625 10.40625 
L 59.515625 29.984375 
L 43.40625 29.984375 
L 43.40625 38.09375 
L 69.28125 38.09375 
L 69.28125 6.78125 
Q 63.578125 2.734375 56.6875 0.65625 
Q 49.8125 -1.421875 42 -1.421875 
Q 24.90625 -1.421875 15.25 8.5625 
Q 5.609375 18.5625 5.609375 36.375 
Q 5.609375 54.25 15.25 64.234375 
Q 24.90625 74.21875 42 74.21875 
Q 49.125 74.21875 55.546875 72.453125 
Q 61.96875 70.703125 67.390625 67.28125 
L 67.390625 56.78125 
Q 61.921875 61.421875 55.765625 63.765625 
Q 49.609375 66.109375 42.828125 66.109375 
Q 29.4375 66.109375 22.71875 58.640625 
Q 16.015625 51.171875 16.015625 36.375 
Q 16.015625 21.625 22.71875 14.15625 
Q 29.4375 6.6875 42.828125 6.6875 
Q 48.046875 6.6875 52.140625 7.59375 
Q 56.25 8.5 59.515625 10.40625 
z
" id="DejaVuSans-71"/>
       <path d="M 56.203125 29.59375 
L 56.203125 25.203125 
L 14.890625 25.203125 
Q 15.484375 15.921875 20.484375 11.0625 
Q 25.484375 6.203125 34.421875 6.203125 
Q 39.59375 6.203125 44.453125 7.46875 
Q 49.3125 8.734375 54.109375 11.28125 
L 54.109375 2.78125 
Q 49.265625 0.734375 44.1875 -0.34375 
Q 39.109375 -1.421875 33.890625 -1.421875 
Q 20.796875 -1.421875 13.15625 6.1875 
Q 5.515625 13.8125 5.515625 26.8125 
Q 5.515625 40.234375 12.765625 48.109375 
Q 20.015625 56 32.328125 56 
Q 43.359375 56 49.78125 48.890625 
Q 56.203125 41.796875 56.203125 29.59375 
z
M 47.21875 32.234375 
Q 47.125 39.59375 43.09375 43.984375 
Q 39.0625 48.390625 32.421875 48.390625 
Q 24.90625 48.390625 20.390625 44.140625 
Q 15.875 39.890625 15.1875 32.171875 
z
" id="DejaVuSans-101"/>
       <path d="M 54.890625 33.015625 
L 54.890625 0 
L 45.90625 0 
L 45.90625 32.71875 
Q 45.90625 40.484375 42.875 44.328125 
Q 39.84375 48.1875 33.796875 48.1875 
Q 26.515625 48.1875 22.3125 43.546875 
Q 18.109375 38.921875 18.109375 30.90625 
L 18.109375 0 
L 9.078125 0 
L 9.078125 54.6875 
L 18.109375 54.6875 
L 18.109375 46.1875 
Q 21.34375 51.125 25.703125 53.5625 
Q 30.078125 56 35.796875 56 
Q 45.21875 56 50.046875 50.171875 
Q 54.890625 44.34375 54.890625 33.015625 
z
" id="DejaVuSans-110"/>
       <path d="M 41.109375 46.296875 
Q 39.59375 47.171875 37.8125 47.578125 
Q 36.03125 48 33.890625 48 
Q 26.265625 48 22.1875 43.046875 
Q 18.109375 38.09375 18.109375 28.8125 
L 18.109375 0 
L 9.078125 0 
L 9.078125 54.6875 
L 18.109375 54.6875 
L 18.109375 46.1875 
Q 20.953125 51.171875 25.484375 53.578125 
Q 30.03125 56 36.53125 56 
Q 37.453125 56 38.578125 55.875 
Q 39.703125 55.765625 41.0625 55.515625 
z
" id="DejaVuSans-114"/>
       <path d="M 34.28125 27.484375 
Q 23.390625 27.484375 19.1875 25 
Q 14.984375 22.515625 14.984375 16.5 
Q 14.984375 11.71875 18.140625 8.90625 
Q 21.296875 6.109375 26.703125 6.109375 
Q 34.1875 6.109375 38.703125 11.40625 
Q 43.21875 16.703125 43.21875 25.484375 
L 43.21875 27.484375 
z
M 52.203125 31.203125 
L 52.203125 0 
L 43.21875 0 
L 43.21875 8.296875 
Q 40.140625 3.328125 35.546875 0.953125 
Q 30.953125 -1.421875 24.3125 -1.421875 
Q 15.921875 -1.421875 10.953125 3.296875 
Q 6 8.015625 6 15.921875 
Q 6 25.140625 12.171875 29.828125 
Q 18.359375 34.515625 30.609375 34.515625 
L 43.21875 34.515625 
L 43.21875 35.40625 
Q 43.21875 41.609375 39.140625 45 
Q 35.0625 48.390625 27.6875 48.390625 
Q 23 48.390625 18.546875 47.265625 
Q 14.109375 46.140625 10.015625 43.890625 
L 10.015625 52.203125 
Q 14.9375 54.109375 19.578125 55.046875 
Q 24.21875 56 28.609375 56 
Q 40.484375 56 46.34375 49.84375 
Q 52.203125 43.703125 52.203125 31.203125 
z
" id="DejaVuSans-97"/>
       <path d="M 18.3125 70.21875 
L 18.3125 54.6875 
L 36.8125 54.6875 
L 36.8125 47.703125 
L 18.3125 47.703125 
L 18.3125 18.015625 
Q 18.3125 11.328125 20.140625 9.421875 
Q 21.96875 7.515625 27.59375 7.515625 
L 36.8125 7.515625 
L 36.8125 0 
L 27.59375 0 
Q 17.1875 0 13.234375 3.875 
Q 9.28125 7.765625 9.28125 18.015625 
L 9.28125 47.703125 
L 2.6875 47.703125 
L 2.6875 54.6875 
L 9.28125 54.6875 
L 9.28125 70.21875 
z
" id="DejaVuSans-116"/>
       <path d="M 9.421875 54.6875 
L 18.40625 54.6875 
L 18.40625 0 
L 9.421875 0 
z
M 9.421875 75.984375 
L 18.40625 75.984375 
L 18.40625 64.59375 
L 9.421875 64.59375 
z
" id="DejaVuSans-105"/>
       <path d="M 30.609375 48.390625 
Q 23.390625 48.390625 19.1875 42.75 
Q 14.984375 37.109375 14.984375 27.296875 
Q 14.984375 17.484375 19.15625 11.84375 
Q 23.34375 6.203125 30.609375 6.203125 
Q 37.796875 6.203125 41.984375 11.859375 
Q 46.1875 17.53125 46.1875 27.296875 
Q 46.1875 37.015625 41.984375 42.703125 
Q 37.796875 48.390625 30.609375 48.390625 
z
M 30.609375 56 
Q 42.328125 56 49.015625 48.375 
Q 55.71875 40.765625 55.71875 27.296875 
Q 55.71875 13.875 49.015625 6.21875 
Q 42.328125 -1.421875 30.609375 -1.421875 
Q 18.84375 -1.421875 12.171875 6.21875 
Q 5.515625 13.875 5.515625 27.296875 
Q 5.515625 40.765625 12.171875 48.375 
Q 18.84375 56 30.609375 56 
z
" id="DejaVuSans-111"/>
      </defs>
      <use xlink:href="#DejaVuSans-71"/>
      <use x="77.490234" xlink:href="#DejaVuSans-101"/>
      <use x="139.013672" xlink:href="#DejaVuSans-110"/>
      <use x="202.392578" xlink:href="#DejaVuSans-101"/>
      <use x="263.916016" xlink:href="#DejaVuSans-114"/>
      <use x="305.029297" xlink:href="#DejaVuSans-97"/>
      <use x="366.308594" xlink:href="#DejaVuSans-116"/>
      <use x="405.517578" xlink:href="#DejaVuSans-105"/>
      <use x="433.300781" xlink:href="#DejaVuSans-111"/>
      <use x="494.482422" xlink:href="#DejaVuSans-110"/>
     </g>
    </g>
   </g>
   <g id="matplotlib.axis_2">
    <g id="ytick_1">
     <g id="line2d_7">
      <defs>
       <path d="M 0 0 
L -3.5 0 
" id="m001e1985d8" style="stroke:#000000;stroke-width:0.8;"/>
      </defs>
      <g>
       <use style="stroke:#000000;stroke-width:0.8;" x="42.765865" xlink:href="#m001e1985d8" y="123.667972"/>
      </g>
     </g>
     <g id="text_8">
      <!-- 6 -->
      <g transform="translate(29.403365 127.467191)scale(0.1 -0.1)">
       <use xlink:href="#DejaVuSans-54"/>
      </g>
     </g>
    </g>
    <g id="ytick_2">
     <g id="line2d_8">
      <g>
       <use style="stroke:#000000;stroke-width:0.8;" x="42.765865" xlink:href="#m001e1985d8" y="85.862074"/>
      </g>
     </g>
     <g id="text_9">
      <!-- 8 -->
      <g transform="translate(29.403365 89.661293)scale(0.1 -0.1)">
       <use xlink:href="#DejaVuSans-56"/>
      </g>
     </g>
    </g>
    <g id="ytick_3">
     <g id="line2d_9">
      <g>
       <use style="stroke:#000000;stroke-width:0.8;" x="42.765865" xlink:href="#m001e1985d8" y="48.056176"/>
      </g>
     </g>
     <g id="text_10">
      <!-- 10 -->
      <g transform="translate(23.040865 51.855394)scale(0.1 -0.1)">
       <use xlink:href="#DejaVuSans-49"/>
       <use x="63.623047" xlink:href="#DejaVuSans-48"/>
      </g>
     </g>
    </g>
    <g id="ytick_4">
     <g id="line2d_10">
      <g>
       <use style="stroke:#000000;stroke-width:0.8;" x="42.765865" xlink:href="#m001e1985d8" y="10.250277"/>
      </g>
     </g>
     <g id="text_11">
      <!-- 12 -->
      <g transform="translate(23.040865 14.049496)scale(0.1 -0.1)">
       <use xlink:href="#DejaVuSans-49"/>
       <use x="63.623047" xlink:href="#DejaVuSans-50"/>
      </g>
     </g>
    </g>
    <g id="text_12">
     <!-- Subjective Fit. -->
     <g transform="translate(16.961177 105.515687)rotate(-90)scale(0.1 -0.1)">
      <defs>
       <path d="M 53.515625 70.515625 
L 53.515625 60.890625 
Q 47.90625 63.578125 42.921875 64.890625 
Q 37.9375 66.21875 33.296875 66.21875 
Q 25.25 66.21875 20.875 63.09375 
Q 16.5 59.96875 16.5 54.203125 
Q 16.5 49.359375 19.40625 46.890625 
Q 22.3125 44.4375 30.421875 42.921875 
L 36.375 41.703125 
Q 47.40625 39.59375 52.65625 34.296875 
Q 57.90625 29 57.90625 20.125 
Q 57.90625 9.515625 50.796875 4.046875 
Q 43.703125 -1.421875 29.984375 -1.421875 
Q 24.8125 -1.421875 18.96875 -0.25 
Q 13.140625 0.921875 6.890625 3.21875 
L 6.890625 13.375 
Q 12.890625 10.015625 18.65625 8.296875 
Q 24.421875 6.59375 29.984375 6.59375 
Q 38.421875 6.59375 43.015625 9.90625 
Q 47.609375 13.234375 47.609375 19.390625 
Q 47.609375 24.75 44.3125 27.78125 
Q 41.015625 30.8125 33.5 32.328125 
L 27.484375 33.5 
Q 16.453125 35.6875 11.515625 40.375 
Q 6.59375 45.0625 6.59375 53.421875 
Q 6.59375 63.09375 13.40625 68.65625 
Q 20.21875 74.21875 32.171875 74.21875 
Q 37.3125 74.21875 42.625 73.28125 
Q 47.953125 72.359375 53.515625 70.515625 
z
" id="DejaVuSans-83"/>
       <path d="M 8.5 21.578125 
L 8.5 54.6875 
L 17.484375 54.6875 
L 17.484375 21.921875 
Q 17.484375 14.15625 20.5 10.265625 
Q 23.53125 6.390625 29.59375 6.390625 
Q 36.859375 6.390625 41.078125 11.03125 
Q 45.3125 15.671875 45.3125 23.6875 
L 45.3125 54.6875 
L 54.296875 54.6875 
L 54.296875 0 
L 45.3125 0 
L 45.3125 8.40625 
Q 42.046875 3.421875 37.71875 1 
Q 33.40625 -1.421875 27.6875 -1.421875 
Q 18.265625 -1.421875 13.375 4.4375 
Q 8.5 10.296875 8.5 21.578125 
z
M 31.109375 56 
z
" id="DejaVuSans-117"/>
       <path d="M 48.6875 27.296875 
Q 48.6875 37.203125 44.609375 42.84375 
Q 40.53125 48.484375 33.40625 48.484375 
Q 26.265625 48.484375 22.1875 42.84375 
Q 18.109375 37.203125 18.109375 27.296875 
Q 18.109375 17.390625 22.1875 11.75 
Q 26.265625 6.109375 33.40625 6.109375 
Q 40.53125 6.109375 44.609375 11.75 
Q 48.6875 17.390625 48.6875 27.296875 
z
M 18.109375 46.390625 
Q 20.953125 51.265625 25.265625 53.625 
Q 29.59375 56 35.59375 56 
Q 45.5625 56 51.78125 48.09375 
Q 58.015625 40.1875 58.015625 27.296875 
Q 58.015625 14.40625 51.78125 6.484375 
Q 45.5625 -1.421875 35.59375 -1.421875 
Q 29.59375 -1.421875 25.265625 0.953125 
Q 20.953125 3.328125 18.109375 8.203125 
L 18.109375 0 
L 9.078125 0 
L 9.078125 75.984375 
L 18.109375 75.984375 
z
" id="DejaVuSans-98"/>
       <path d="M 9.421875 54.6875 
L 18.40625 54.6875 
L 18.40625 -0.984375 
Q 18.40625 -11.421875 14.421875 -16.109375 
Q 10.453125 -20.796875 1.609375 -20.796875 
L -1.8125 -20.796875 
L -1.8125 -13.1875 
L 0.59375 -13.1875 
Q 5.71875 -13.1875 7.5625 -10.8125 
Q 9.421875 -8.453125 9.421875 -0.984375 
z
M 9.421875 75.984375 
L 18.40625 75.984375 
L 18.40625 64.59375 
L 9.421875 64.59375 
z
" id="DejaVuSans-106"/>
       <path d="M 48.78125 52.59375 
L 48.78125 44.1875 
Q 44.96875 46.296875 41.140625 47.34375 
Q 37.3125 48.390625 33.40625 48.390625 
Q 24.65625 48.390625 19.8125 42.84375 
Q 14.984375 37.3125 14.984375 27.296875 
Q 14.984375 17.28125 19.8125 11.734375 
Q 24.65625 6.203125 33.40625 6.203125 
Q 37.3125 6.203125 41.140625 7.25 
Q 44.96875 8.296875 48.78125 10.40625 
L 48.78125 2.09375 
Q 45.015625 0.34375 40.984375 -0.53125 
Q 36.96875 -1.421875 32.421875 -1.421875 
Q 20.0625 -1.421875 12.78125 6.34375 
Q 5.515625 14.109375 5.515625 27.296875 
Q 5.515625 40.671875 12.859375 48.328125 
Q 20.21875 56 33.015625 56 
Q 37.15625 56 41.109375 55.140625 
Q 45.0625 54.296875 48.78125 52.59375 
z
" id="DejaVuSans-99"/>
       <path d="M 2.984375 54.6875 
L 12.5 54.6875 
L 29.59375 8.796875 
L 46.6875 54.6875 
L 56.203125 54.6875 
L 35.6875 0 
L 23.484375 0 
z
" id="DejaVuSans-118"/>
       <path id="DejaVuSans-32"/>
       <path d="M 9.8125 72.90625 
L 51.703125 72.90625 
L 51.703125 64.59375 
L 19.671875 64.59375 
L 19.671875 43.109375 
L 48.578125 43.109375 
L 48.578125 34.8125 
L 19.671875 34.8125 
L 19.671875 0 
L 9.8125 0 
z
" id="DejaVuSans-70"/>
       <path d="M 10.6875 12.40625 
L 21 12.40625 
L 21 0 
L 10.6875 0 
z
" id="DejaVuSans-46"/>
      </defs>
      <use xlink:href="#DejaVuSans-83"/>
      <use x="63.476562" xlink:href="#DejaVuSans-117"/>
      <use x="126.855469" xlink:href="#DejaVuSans-98"/>
      <use x="190.332031" xlink:href="#DejaVuSans-106"/>
      <use x="218.115234" xlink:href="#DejaVuSans-101"/>
      <use x="279.638672" xlink:href="#DejaVuSans-99"/>
      <use x="334.619141" xlink:href="#DejaVuSans-116"/>
      <use x="373.828125" xlink:href="#DejaVuSans-105"/>
      <use x="401.611328" xlink:href="#DejaVuSans-118"/>
      <use x="460.791016" xlink:href="#DejaVuSans-101"/>
      <use x="522.314453" xlink:href="#DejaVuSans-32"/>
      <use x="554.101562" xlink:href="#DejaVuSans-70"/>
      <use x="604.371094" xlink:href="#DejaVuSans-105"/>
      <use x="632.154297" xlink:href="#DejaVuSans-116"/>
      <use x="671.363281" xlink:href="#DejaVuSans-46"/>
     </g>
    </g>
   </g>
   <g id="line2d_11">
    <path clip-path="url(#pc40d43c4ae)" d="M 61.631042 22.975743 
L 65.442189 24.223337 
L 69.253336 25.281902 
L 73.064483 26.680721 
L 76.87563 24.329194 
L 80.686776 21.992789 
L 84.497923 21.062764 
L 88.30907 20.71495 
L 92.120217 19.30857 
L 95.931364 18.514647 
L 99.742511 18.847338 
L 103.553658 18.66587 
L 107.364805 19.021246 
L 111.175951 18.189516 
L 114.987098 17.599744 
L 118.798245 16.74533 
L 122.609392 16.843626 
L 126.420539 17.493887 
L 130.231686 16.586546 
L 134.042833 15.33139 
L 137.85398 15.739694 
L 141.665126 16.268976 
L 145.476273 15.127238 
L 149.28742 13.53939 
L 153.098567 14.11404 
L 156.909714 14.038428 
L 160.720861 12.170817 
L 164.532008 11.943981 
L 168.343155 11.248353 
L 172.154302 11.271036 
L 175.965448 12.495948 
L 179.776595 11.770074 
L 183.587742 12.291796 
L 187.398889 12.352285 
L 191.210036 12.155694 
L 195.021183 11.407138 
L 198.83233 11.323965 
L 202.643477 11.392015 
L 206.454623 11.376893 
L 210.26577 11.006395 
L 214.076917 12.284234 
L 217.888064 11.724707 
L 221.699211 11.770074 
L 225.510358 12.359846 
L 229.321505 11.013956 
L 233.132652 10.083931 
L 236.943798 9.267324 
L 240.754945 9.69075 
L 244.566092 9.123661 
L 248.377239 9.962952 
L 252.188386 10.998834 
L 255.999533 13.456217 
L 259.81068 17.229246 
L 263.621827 19.580773 
L 267.432973 23.641126 
L 271.24412 29.894222 
L 275.055267 33.115284 
L 278.866414 37.856144 
L 282.677561 44.767062 
L 286.488708 52.5702 
L 290.299855 49.197914 
L 294.111002 54.914166 
L 297.922148 62.664375 
L 301.733295 67.609386 
L 305.544442 69.764322 
L 309.355589 78.497485 
L 313.166736 84.123003 
L 316.977883 92.493229 
L 320.78903 95.5177 
L 324.600177 100.931505 
L 328.411323 98.625345 
L 332.22247 106.322626 
L 336.033617 124.287989 
L 339.844764 111.207148 
L 343.655911 115.638 
L 347.467058 129.860578 
L 351.278205 106.957765 
L 355.089352 116.515096 
L 358.900499 117.293898 
L 362.711645 118.072699 
L 366.522792 105.831149 
L 370.333939 112.893291 
L 374.145086 111.864971 
L 377.956233 118.541493 
L 381.76738 117.687079 
L 385.578527 131.070367 
L 389.389674 114.299671 
L 393.20082 116.22021 
L 397.011967 114.466017 
L 400.823114 107.592904 
L 404.634261 122.223787 
L 408.445408 107.698761 
L 412.256555 114.889443 
L 416.067702 130.215954 
L 419.878849 107.986086 
L 423.689995 121.7928 
L 427.501142 122.352327 
L 431.312289 126.276579 
L 435.123436 114.322354 
L 438.934583 120.567889 
" style="fill:none;stroke:#ff0000;stroke-linecap:square;stroke-width:1.5;"/>
   </g>
   <g id="line2d_12">
    <path clip-path="url(#pc40d43c4ae)" d="M 61.631042 25.599472 
L 65.442189 22.771591 
L 69.253336 19.4976 
L 73.064483 16.866309 
L 76.87563 17.531693 
L 80.686776 18.045853 
L 84.497923 17.675356 
L 88.30907 17.629989 
L 92.120217 18.008047 
L 95.931364 16.54874 
L 99.742511 16.389955 
L 103.553658 15.596031 
L 107.364805 14.703812 
L 111.175951 15.134799 
L 114.987098 14.49966 
L 118.798245 14.976014 
L 122.609392 14.310631 
L 126.420539 13.244504 
L 130.231686 13.622563 
L 134.042833 14.121601 
L 137.85398 13.615002 
L 141.665126 13.191576 
L 145.476273 13.274749 
L 149.28742 14.166968 
L 153.098567 14.378681 
L 156.909714 14.189652 
L 160.720861 15.180166 
L 164.532008 14.567711 
L 168.343155 15.800183 
L 172.154302 15.187727 
L 175.965448 14.106479 
L 179.776595 14.393804 
L 183.587742 13.834276 
L 187.398889 12.775711 
L 191.210036 13.577196 
L 195.021183 13.841837 
L 198.83233 13.592319 
L 202.643477 12.964741 
L 206.454623 12.957179 
L 210.26577 13.335238 
L 214.076917 11.830564 
L 217.888064 12.473264 
L 221.699211 12.291796 
L 225.510358 11.565922 
L 229.321505 12.178378 
L 233.132652 12.919374 
L 236.943798 13.72842 
L 240.754945 13.531829 
L 244.566092 14.424048 
L 248.377239 15.248217 
L 252.188386 15.641398 
L 255.999533 17.267052 
L 259.81068 18.862461 
L 263.621827 22.922814 
L 267.432973 27.76953 
L 271.24412 32.525512 
L 275.055267 37.341984 
L 278.866414 43.254826 
L 282.677561 48.025931 
L 286.488708 54.634402 
L 290.299855 62.63413 
L 294.111002 65.348593 
L 297.922148 67.133032 
L 301.733295 73.696136 
L 305.544442 79.087257 
L 309.355589 82.867847 
L 313.166736 90.512199 
L 316.977883 97.196282 
L 320.78903 109.437832 
L 324.600177 105.150643 
L 328.411323 107.918035 
L 332.22247 109.528566 
L 336.033617 117.384632 
L 339.844764 116.515096 
L 343.655911 113.407452 
L 347.467058 112.469865 
L 351.278205 113.059637 
L 355.089352 117.740007 
L 358.900499 113.838439 
L 362.711645 117.422438 
L 366.522792 112.681578 
L 370.333939 111.15422 
L 374.145086 115.638 
L 377.956233 115.229696 
L 381.76738 116.802421 
L 385.578527 121.505475 
L 389.389674 121.172783 
L 393.20082 116.046303 
L 397.011967 112.938658 
L 400.823114 113.006709 
L 404.634261 125.633879 
L 408.445408 121.702066 
L 412.256555 126.458048 
L 416.067702 131.592089 
L 419.878849 110.564448 
L 423.689995 118.481003 
L 427.501142 120.091534 
L 431.312289 129.989119 
L 435.123436 107.108989 
L 438.934583 122.972344 
" style="fill:none;stroke:#00ff9f;stroke-linecap:square;stroke-width:1.5;"/>
   </g>
   <g id="patch_3">
    <path d="M 42.765865 137.71551 
L 42.765865 3.00024 
" style="fill:none;stroke:#000000;stroke-linecap:square;stroke-linejoin:miter;stroke-width:0.8;"/>
   </g>
   <g id="patch_4">
    <path d="M 457.79976 137.71551 
L 457.79976 3.00024 
" style="fill:none;stroke:#000000;stroke-linecap:square;stroke-linejoin:miter;stroke-width:0.8;"/>
   </g>
   <g id="patch_5">
    <path d="M 42.765865 137.71551 
L 457.79976 137.71551 
" style="fill:none;stroke:#000000;stroke-linecap:square;stroke-linejoin:miter;stroke-width:0.8;"/>
   </g>
   <g id="patch_6">
    <path d="M 42.765865 3.00024 
L 457.79976 3.00024 
" style="fill:none;stroke:#000000;stroke-linecap:square;stroke-linejoin:miter;stroke-width:0.8;"/>
   </g>
  </g>
  <g id="axes_2">
   <g id="patch_7">
    <path d="M 42.765865 312.24351 
L 457.79976 312.24351 
L 457.79976 177.52824 
L 42.765865 177.52824 
z
" style="fill:#ffffff;"/>
   </g>
   <g id="matplotlib.axis_3">
    <g id="xtick_7">
     <g id="line2d_13">
      <g>
       <use style="stroke:#000000;stroke-width:0.8;" x="61.631042" xlink:href="#ma004fd5a9d" y="312.24351"/>
      </g>
     </g>
     <g id="text_13">
      <!-- 0 -->
      <g transform="translate(58.449792 326.841947)scale(0.1 -0.1)">
       <use xlink:href="#DejaVuSans-48"/>
      </g>
     </g>
    </g>
    <g id="xtick_8">
     <g id="line2d_14">
      <g>
       <use style="stroke:#000000;stroke-width:0.8;" x="137.85398" xlink:href="#ma004fd5a9d" y="312.24351"/>
      </g>
     </g>
     <g id="text_14">
      <!-- 20 -->
      <g transform="translate(131.49148 326.841947)scale(0.1 -0.1)">
       <use xlink:href="#DejaVuSans-50"/>
       <use x="63.623047" xlink:href="#DejaVuSans-48"/>
      </g>
     </g>
    </g>
    <g id="xtick_9">
     <g id="line2d_15">
      <g>
       <use style="stroke:#000000;stroke-width:0.8;" x="214.076917" xlink:href="#ma004fd5a9d" y="312.24351"/>
      </g>
     </g>
     <g id="text_15">
      <!-- 40 -->
      <g transform="translate(207.714417 326.841947)scale(0.1 -0.1)">
       <use xlink:href="#DejaVuSans-52"/>
       <use x="63.623047" xlink:href="#DejaVuSans-48"/>
      </g>
     </g>
    </g>
    <g id="xtick_10">
     <g id="line2d_16">
      <g>
       <use style="stroke:#000000;stroke-width:0.8;" x="290.299855" xlink:href="#ma004fd5a9d" y="312.24351"/>
      </g>
     </g>
     <g id="text_16">
      <!-- 60 -->
      <g transform="translate(283.937355 326.841947)scale(0.1 -0.1)">
       <use xlink:href="#DejaVuSans-54"/>
       <use x="63.623047" xlink:href="#DejaVuSans-48"/>
      </g>
     </g>
    </g>
    <g id="xtick_11">
     <g id="line2d_17">
      <g>
       <use style="stroke:#000000;stroke-width:0.8;" x="366.522792" xlink:href="#ma004fd5a9d" y="312.24351"/>
      </g>
     </g>
     <g id="text_17">
      <!-- 80 -->
      <g transform="translate(360.160292 326.841947)scale(0.1 -0.1)">
       <use xlink:href="#DejaVuSans-56"/>
       <use x="63.623047" xlink:href="#DejaVuSans-48"/>
      </g>
     </g>
    </g>
    <g id="xtick_12">
     <g id="line2d_18">
      <g>
       <use style="stroke:#000000;stroke-width:0.8;" x="442.74573" xlink:href="#ma004fd5a9d" y="312.24351"/>
      </g>
     </g>
     <g id="text_18">
      <!-- 100 -->
      <g transform="translate(433.20198 326.841947)scale(0.1 -0.1)">
       <use xlink:href="#DejaVuSans-49"/>
       <use x="63.623047" xlink:href="#DejaVuSans-48"/>
       <use x="127.246094" xlink:href="#DejaVuSans-48"/>
      </g>
     </g>
    </g>
    <g id="text_19">
     <!-- Generation -->
     <g transform="translate(222.389844 340.520072)scale(0.1 -0.1)">
      <use xlink:href="#DejaVuSans-71"/>
      <use x="77.490234" xlink:href="#DejaVuSans-101"/>
      <use x="139.013672" xlink:href="#DejaVuSans-110"/>
      <use x="202.392578" xlink:href="#DejaVuSans-101"/>
      <use x="263.916016" xlink:href="#DejaVuSans-114"/>
      <use x="305.029297" xlink:href="#DejaVuSans-97"/>
      <use x="366.308594" xlink:href="#DejaVuSans-116"/>
      <use x="405.517578" xlink:href="#DejaVuSans-105"/>
      <use x="433.300781" xlink:href="#DejaVuSans-111"/>
      <use x="494.482422" xlink:href="#DejaVuSans-110"/>
     </g>
    </g>
   </g>
   <g id="matplotlib.axis_4">
    <g id="ytick_5">
     <g id="line2d_19">
      <g>
       <use style="stroke:#000000;stroke-width:0.8;" x="42.765865" xlink:href="#m001e1985d8" y="288.340166"/>
      </g>
     </g>
     <g id="text_20">
      <!-- 20 -->
      <g transform="translate(23.040865 292.139385)scale(0.1 -0.1)">
       <use xlink:href="#DejaVuSans-50"/>
       <use x="63.623047" xlink:href="#DejaVuSans-48"/>
      </g>
     </g>
    </g>
    <g id="ytick_6">
     <g id="line2d_20">
      <g>
       <use style="stroke:#000000;stroke-width:0.8;" x="42.765865" xlink:href="#m001e1985d8" y="261.947929"/>
      </g>
     </g>
     <g id="text_21">
      <!-- 40 -->
      <g transform="translate(23.040865 265.747147)scale(0.1 -0.1)">
       <use xlink:href="#DejaVuSans-52"/>
       <use x="63.623047" xlink:href="#DejaVuSans-48"/>
      </g>
     </g>
    </g>
    <g id="ytick_7">
     <g id="line2d_21">
      <g>
       <use style="stroke:#000000;stroke-width:0.8;" x="42.765865" xlink:href="#m001e1985d8" y="235.555691"/>
      </g>
     </g>
     <g id="text_22">
      <!-- 60 -->
      <g transform="translate(23.040865 239.35491)scale(0.1 -0.1)">
       <use xlink:href="#DejaVuSans-54"/>
       <use x="63.623047" xlink:href="#DejaVuSans-48"/>
      </g>
     </g>
    </g>
    <g id="ytick_8">
     <g id="line2d_22">
      <g>
       <use style="stroke:#000000;stroke-width:0.8;" x="42.765865" xlink:href="#m001e1985d8" y="209.163454"/>
      </g>
     </g>
     <g id="text_23">
      <!-- 80 -->
      <g transform="translate(23.040865 212.962673)scale(0.1 -0.1)">
       <use xlink:href="#DejaVuSans-56"/>
       <use x="63.623047" xlink:href="#DejaVuSans-48"/>
      </g>
     </g>
    </g>
    <g id="ytick_9">
     <g id="line2d_23">
      <g>
       <use style="stroke:#000000;stroke-width:0.8;" x="42.765865" xlink:href="#m001e1985d8" y="182.771216"/>
      </g>
     </g>
     <g id="text_24">
      <!-- 100 -->
      <g transform="translate(16.678365 186.570435)scale(0.1 -0.1)">
       <use xlink:href="#DejaVuSans-49"/>
       <use x="63.623047" xlink:href="#DejaVuSans-48"/>
       <use x="127.246094" xlink:href="#DejaVuSans-48"/>
      </g>
     </g>
    </g>
    <g id="text_25">
     <!-- Objective Fit. -->
     <g transform="translate(10.598677 277.636656)rotate(-90)scale(0.1 -0.1)">
      <defs>
       <path d="M 39.40625 66.21875 
Q 28.65625 66.21875 22.328125 58.203125 
Q 16.015625 50.203125 16.015625 36.375 
Q 16.015625 22.609375 22.328125 14.59375 
Q 28.65625 6.59375 39.40625 6.59375 
Q 50.140625 6.59375 56.421875 14.59375 
Q 62.703125 22.609375 62.703125 36.375 
Q 62.703125 50.203125 56.421875 58.203125 
Q 50.140625 66.21875 39.40625 66.21875 
z
M 39.40625 74.21875 
Q 54.734375 74.21875 63.90625 63.9375 
Q 73.09375 53.65625 73.09375 36.375 
Q 73.09375 19.140625 63.90625 8.859375 
Q 54.734375 -1.421875 39.40625 -1.421875 
Q 24.03125 -1.421875 14.8125 8.828125 
Q 5.609375 19.09375 5.609375 36.375 
Q 5.609375 53.65625 14.8125 63.9375 
Q 24.03125 74.21875 39.40625 74.21875 
z
" id="DejaVuSans-79"/>
      </defs>
      <use xlink:href="#DejaVuSans-79"/>
      <use x="78.710938" xlink:href="#DejaVuSans-98"/>
      <use x="142.1875" xlink:href="#DejaVuSans-106"/>
      <use x="169.970703" xlink:href="#DejaVuSans-101"/>
      <use x="231.494141" xlink:href="#DejaVuSans-99"/>
      <use x="286.474609" xlink:href="#DejaVuSans-116"/>
      <use x="325.683594" xlink:href="#DejaVuSans-105"/>
      <use x="353.466797" xlink:href="#DejaVuSans-118"/>
      <use x="412.646484" xlink:href="#DejaVuSans-101"/>
      <use x="474.169922" xlink:href="#DejaVuSans-32"/>
      <use x="505.957031" xlink:href="#DejaVuSans-70"/>
      <use x="556.226562" xlink:href="#DejaVuSans-105"/>
      <use x="584.009766" xlink:href="#DejaVuSans-116"/>
      <use x="623.21875" xlink:href="#DejaVuSans-46"/>
     </g>
    </g>
   </g>
   <g id="line2d_24">
    <path clip-path="url(#p61cd5f6d57)" d="M 61.631042 306.057803 
L 65.442189 304.118501 
L 69.253336 302.0958 
L 73.064483 300.003424 
L 76.87563 297.941662 
L 80.686776 295.780666 
L 84.497923 293.632338 
L 88.30907 291.438615 
L 92.120217 289.228001 
L 95.931364 287.174685 
L 99.742511 285.080197 
L 103.553658 283.068053 
L 107.364805 280.927114 
L 111.175951 278.757673 
L 114.987098 276.653683 
L 118.798245 274.490576 
L 122.609392 272.383419 
L 126.420539 270.367052 
L 130.231686 268.221891 
L 134.042833 266.107345 
L 137.85398 263.982242 
L 141.665126 261.894089 
L 145.476273 259.786932 
L 149.28742 257.676609 
L 153.098567 255.582121 
L 156.909714 253.463352 
L 160.720861 251.351973 
L 164.532008 249.316604 
L 168.343155 247.15244 
L 172.154302 245.067454 
L 175.965448 242.9793 
L 179.776595 240.823582 
L 183.587742 238.782934 
L 187.398889 236.737008 
L 191.210036 234.578123 
L 195.021183 232.400235 
L 198.83233 230.244517 
L 202.643477 228.112025 
L 206.454623 226.116771 
L 210.26577 224.045509 
L 214.076917 222.050255 
L 217.888064 219.910373 
L 221.699211 217.895062 
L 225.510358 215.949426 
L 229.321505 213.911945 
L 233.132652 211.756227 
L 236.943798 209.653294 
L 240.754945 207.778389 
L 244.566092 205.745131 
L 248.377239 203.889229 
L 252.188386 202.120949 
L 255.999533 200.378006 
L 259.81068 198.817697 
L 263.621827 197.160264 
L 267.432973 195.597844 
L 271.24412 194.341573 
L 275.055267 193.110639 
L 278.866414 192.035947 
L 282.677561 190.974979 
L 286.488708 190.043861 
L 290.299855 189.175029 
L 294.111002 188.451882 
L 297.922148 188.058109 
L 301.733295 187.36241 
L 305.544442 186.866236 
L 309.355589 186.457684 
L 313.166736 185.991069 
L 316.977883 185.517065 
L 320.78903 185.112736 
L 324.600177 184.975496 
L 328.411323 184.730576 
L 332.22247 184.626063 
L 336.033617 184.396978 
L 339.844764 184.387477 
L 343.655911 184.379031 
L 347.467058 184.334692 
L 351.278205 184.203787 
L 355.089352 184.115109 
L 358.900499 184.074993 
L 362.711645 183.987371 
L 366.522792 184.054935 
L 370.333939 184.007429 
L 374.145086 183.859632 
L 377.956233 183.873356 
L 381.76738 183.877579 
L 385.578527 183.868078 
L 389.389674 183.862799 
L 393.20082 183.922974 
L 397.011967 183.936698 
L 400.823114 183.918751 
L 404.634261 183.739284 
L 408.445408 183.747729 
L 412.256555 183.712891 
L 416.067702 183.651661 
L 419.878849 183.997928 
L 423.689995 183.822683 
L 427.501142 183.855409 
L 431.312289 183.746673 
L 435.123436 183.982092 
L 438.934583 183.750896 
" style="fill:none;stroke:#ff0000;stroke-linecap:square;stroke-width:1.5;"/>
   </g>
   <g id="line2d_25">
    <path clip-path="url(#p61cd5f6d57)" d="M 61.631042 306.120089 
L 65.442189 304.042492 
L 69.253336 301.929001 
L 73.064483 299.728944 
L 76.87563 297.696742 
L 80.686776 295.621257 
L 84.497923 293.468706 
L 88.30907 291.338324 
L 92.120217 289.194219 
L 95.931364 287.02161 
L 99.742511 284.881727 
L 103.553658 282.797796 
L 107.364805 280.679027 
L 111.175951 278.639435 
L 114.987098 276.525945 
L 118.798245 274.470517 
L 122.609392 272.312688 
L 126.420539 270.222423 
L 130.231686 268.128991 
L 134.042833 266.168575 
L 137.85398 264.081477 
L 141.665126 261.948984 
L 145.476273 259.879833 
L 149.28742 257.912028 
L 153.098567 255.778479 
L 156.909714 253.663933 
L 160.720861 251.657067 
L 164.532008 249.591083 
L 168.343155 247.516653 
L 172.154302 245.399996 
L 175.965448 243.232665 
L 179.776595 241.160347 
L 183.587742 238.985626 
L 187.398889 236.978761 
L 191.210036 234.847324 
L 195.021183 232.787673 
L 198.83233 230.636178 
L 202.643477 228.543802 
L 206.454623 226.499987 
L 210.26577 224.488898 
L 214.076917 222.287786 
L 217.888064 220.163738 
L 221.699211 218.124146 
L 225.510358 216.102501 
L 229.321505 214.12625 
L 233.132652 212.236566 
L 236.943798 210.261371 
L 240.754945 208.374854 
L 244.566092 206.530564 
L 248.377239 204.609209 
L 252.188386 202.849375 
L 255.999533 201.099042 
L 259.81068 199.262142 
L 263.621827 197.724002 
L 267.432973 196.229146 
L 271.24412 194.878919 
L 275.055267 193.716605 
L 278.866414 192.640857 
L 282.677561 191.692848 
L 286.488708 190.736394 
L 290.299855 190.145207 
L 294.111002 189.451619 
L 297.922148 188.816094 
L 301.733295 188.232298 
L 305.544442 187.84486 
L 309.355589 187.206168 
L 313.166736 186.69627 
L 316.977883 186.286662 
L 320.78903 186.043854 
L 324.600177 185.755651 
L 328.411323 185.48645 
L 332.22247 185.140184 
L 336.033617 184.767525 
L 339.844764 184.813976 
L 343.655911 184.69046 
L 347.467058 184.318857 
L 351.278205 184.512048 
L 355.089352 184.298799 
L 358.900499 184.227012 
L 362.711645 184.250237 
L 366.522792 184.394867 
L 370.333939 184.155225 
L 374.145086 184.099274 
L 377.956233 183.966257 
L 381.76738 183.934586 
L 385.578527 183.782567 
L 389.389674 184.012707 
L 393.20082 183.913472 
L 397.011967 183.971535 
L 400.823114 184.012707 
L 404.634261 183.791012 
L 408.445408 184.00954 
L 412.256555 183.937753 
L 416.067702 183.742451 
L 419.878849 184.087661 
L 423.689995 183.815293 
L 427.501142 183.821627 
L 431.312289 183.807903 
L 435.123436 183.921918 
L 438.934583 183.799458 
" style="fill:none;stroke:#00ff9f;stroke-linecap:square;stroke-width:1.5;"/>
   </g>
   <g id="patch_8">
    <path d="M 42.765865 312.24351 
L 42.765865 177.52824 
" style="fill:none;stroke:#000000;stroke-linecap:square;stroke-linejoin:miter;stroke-width:0.8;"/>
   </g>
   <g id="patch_9">
    <path d="M 457.79976 312.24351 
L 457.79976 177.52824 
" style="fill:none;stroke:#000000;stroke-linecap:square;stroke-linejoin:miter;stroke-width:0.8;"/>
   </g>
   <g id="patch_10">
    <path d="M 42.765865 312.24351 
L 457.79976 312.24351 
" style="fill:none;stroke:#000000;stroke-linecap:square;stroke-linejoin:miter;stroke-width:0.8;"/>
   </g>
   <g id="patch_11">
    <path d="M 42.765865 177.52824 
L 457.79976 177.52824 
" style="fill:none;stroke:#000000;stroke-linecap:square;stroke-linejoin:miter;stroke-width:0.8;"/>
   </g>
  </g>
 </g>
 <defs>
  <clipPath id="pc40d43c4ae">
   <rect height="134.71527" width="415.033895" x="42.765865" y="3.00024"/>
  </clipPath>
  <clipPath id="p61cd5f6d57">
   <rect height="134.71527" width="415.033895" x="42.765865" y="177.52824"/>
  </clipPath>
 </defs>
</svg>
