<?xml version="1.0" encoding="utf-8" standalone="no"?>
<!DOCTYPE svg PUBLIC "-//W3C//DTD SVG 1.1//EN"
  "http://www.w3.org/Graphics/SVG/1.1/DTD/svg11.dtd">
<!-- Created with matplotlib (https://matplotlib.org/) -->
<svg height="345.6pt" version="1.1" viewBox="0 0 460.8 345.6" width="460.8pt" xmlns="http://www.w3.org/2000/svg" xmlns:xlink="http://www.w3.org/1999/xlink">
 <metadata>
  <rdf:RDF xmlns:cc="http://creativecommons.org/ns#" xmlns:dc="http://purl.org/dc/elements/1.1/" xmlns:rdf="http://www.w3.org/1999/02/22-rdf-syntax-ns#">
   <cc:Work>
    <dc:type rdf:resource="http://purl.org/dc/dcmitype/StillImage"/>
    <dc:date>2022-04-29T14:12:52.032330</dc:date>
    <dc:format>image/svg+xml</dc:format>
    <dc:creator>
     <cc:Agent>
      <dc:title>Matplotlib v3.3.4, https://matplotlib.org/</dc:title>
     </cc:Agent>
    </dc:creator>
   </cc:Work>
  </rdf:RDF>
 </metadata>
 <defs>
  <style type="text/css">*{stroke-linecap:butt;stroke-linejoin:round;}</style>
 </defs>
 <g id="figure_1">
  <g id="patch_1">
   <path d="M 0 345.6 
L 460.8 345.6 
L 460.8 0 
L 0 0 
z
" style="fill:#ffffff;"/>
  </g>
  <g id="axes_1">
   <g id="patch_2">
    <path d="M 42.765865 135.815901 
L 457.79976 135.815901 
L 457.79976 3.00024 
L 42.765865 3.00024 
z
" style="fill:#ffffff;"/>
   </g>
   <g id="matplotlib.axis_1">
    <g id="xtick_1">
     <g id="line2d_1">
      <defs>
       <path d="M 0 0 
L 0 3.5 
" id="ma15757c6a9" style="stroke:#000000;stroke-width:0.8;"/>
      </defs>
      <g>
       <use style="stroke:#000000;stroke-width:0.8;" x="61.631042" xlink:href="#ma15757c6a9" y="135.815901"/>
      </g>
     </g>
     <g id="text_1">
      <!-- 0 -->
      <g transform="translate(58.449792 150.414338)scale(0.1 -0.1)">
       <defs>
        <path d="M 31.78125 66.40625 
Q 24.171875 66.40625 20.328125 58.90625 
Q 16.5 51.421875 16.5 36.375 
Q 16.5 21.390625 20.328125 13.890625 
Q 24.171875 6.390625 31.78125 6.390625 
Q 39.453125 6.390625 43.28125 13.890625 
Q 47.125 21.390625 47.125 36.375 
Q 47.125 51.421875 43.28125 58.90625 
Q 39.453125 66.40625 31.78125 66.40625 
z
M 31.78125 74.21875 
Q 44.046875 74.21875 50.515625 64.515625 
Q 56.984375 54.828125 56.984375 36.375 
Q 56.984375 17.96875 50.515625 8.265625 
Q 44.046875 -1.421875 31.78125 -1.421875 
Q 19.53125 -1.421875 13.0625 8.265625 
Q 6.59375 17.96875 6.59375 36.375 
Q 6.59375 54.828125 13.0625 64.515625 
Q 19.53125 74.21875 31.78125 74.21875 
z
" id="DejaVuSans-48"/>
       </defs>
       <use xlink:href="#DejaVuSans-48"/>
      </g>
     </g>
    </g>
    <g id="xtick_2">
     <g id="line2d_2">
      <g>
       <use style="stroke:#000000;stroke-width:0.8;" x="137.85398" xlink:href="#ma15757c6a9" y="135.815901"/>
      </g>
     </g>
     <g id="text_2">
      <!-- 20 -->
      <g transform="translate(131.49148 150.414338)scale(0.1 -0.1)">
       <defs>
        <path d="M 19.1875 8.296875 
L 53.609375 8.296875 
L 53.609375 0 
L 7.328125 0 
L 7.328125 8.296875 
Q 12.9375 14.109375 22.625 23.890625 
Q 32.328125 33.6875 34.8125 36.53125 
Q 39.546875 41.84375 41.421875 45.53125 
Q 43.3125 49.21875 43.3125 52.78125 
Q 43.3125 58.59375 39.234375 62.25 
Q 35.15625 65.921875 28.609375 65.921875 
Q 23.96875 65.921875 18.8125 64.3125 
Q 13.671875 62.703125 7.8125 59.421875 
L 7.8125 69.390625 
Q 13.765625 71.78125 18.9375 73 
Q 24.125 74.21875 28.421875 74.21875 
Q 39.75 74.21875 46.484375 68.546875 
Q 53.21875 62.890625 53.21875 53.421875 
Q 53.21875 48.921875 51.53125 44.890625 
Q 49.859375 40.875 45.40625 35.40625 
Q 44.1875 33.984375 37.640625 27.21875 
Q 31.109375 20.453125 19.1875 8.296875 
z
" id="DejaVuSans-50"/>
       </defs>
       <use xlink:href="#DejaVuSans-50"/>
       <use x="63.623047" xlink:href="#DejaVuSans-48"/>
      </g>
     </g>
    </g>
    <g id="xtick_3">
     <g id="line2d_3">
      <g>
       <use style="stroke:#000000;stroke-width:0.8;" x="214.076917" xlink:href="#ma15757c6a9" y="135.815901"/>
      </g>
     </g>
     <g id="text_3">
      <!-- 40 -->
      <g transform="translate(207.714417 150.414338)scale(0.1 -0.1)">
       <defs>
        <path d="M 37.796875 64.3125 
L 12.890625 25.390625 
L 37.796875 25.390625 
z
M 35.203125 72.90625 
L 47.609375 72.90625 
L 47.609375 25.390625 
L 58.015625 25.390625 
L 58.015625 17.1875 
L 47.609375 17.1875 
L 47.609375 0 
L 37.796875 0 
L 37.796875 17.1875 
L 4.890625 17.1875 
L 4.890625 26.703125 
z
" id="DejaVuSans-52"/>
       </defs>
       <use xlink:href="#DejaVuSans-52"/>
       <use x="63.623047" xlink:href="#DejaVuSans-48"/>
      </g>
     </g>
    </g>
    <g id="xtick_4">
     <g id="line2d_4">
      <g>
       <use style="stroke:#000000;stroke-width:0.8;" x="290.299855" xlink:href="#ma15757c6a9" y="135.815901"/>
      </g>
     </g>
     <g id="text_4">
      <!-- 60 -->
      <g transform="translate(283.937355 150.414338)scale(0.1 -0.1)">
       <defs>
        <path d="M 33.015625 40.375 
Q 26.375 40.375 22.484375 35.828125 
Q 18.609375 31.296875 18.609375 23.390625 
Q 18.609375 15.53125 22.484375 10.953125 
Q 26.375 6.390625 33.015625 6.390625 
Q 39.65625 6.390625 43.53125 10.953125 
Q 47.40625 15.53125 47.40625 23.390625 
Q 47.40625 31.296875 43.53125 35.828125 
Q 39.65625 40.375 33.015625 40.375 
z
M 52.59375 71.296875 
L 52.59375 62.3125 
Q 48.875 64.0625 45.09375 64.984375 
Q 41.3125 65.921875 37.59375 65.921875 
Q 27.828125 65.921875 22.671875 59.328125 
Q 17.53125 52.734375 16.796875 39.40625 
Q 19.671875 43.65625 24.015625 45.921875 
Q 28.375 48.1875 33.59375 48.1875 
Q 44.578125 48.1875 50.953125 41.515625 
Q 57.328125 34.859375 57.328125 23.390625 
Q 57.328125 12.15625 50.6875 5.359375 
Q 44.046875 -1.421875 33.015625 -1.421875 
Q 20.359375 -1.421875 13.671875 8.265625 
Q 6.984375 17.96875 6.984375 36.375 
Q 6.984375 53.65625 15.1875 63.9375 
Q 23.390625 74.21875 37.203125 74.21875 
Q 40.921875 74.21875 44.703125 73.484375 
Q 48.484375 72.75 52.59375 71.296875 
z
" id="DejaVuSans-54"/>
       </defs>
       <use xlink:href="#DejaVuSans-54"/>
       <use x="63.623047" xlink:href="#DejaVuSans-48"/>
      </g>
     </g>
    </g>
    <g id="xtick_5">
     <g id="line2d_5">
      <g>
       <use style="stroke:#000000;stroke-width:0.8;" x="366.522792" xlink:href="#ma15757c6a9" y="135.815901"/>
      </g>
     </g>
     <g id="text_5">
      <!-- 80 -->
      <g transform="translate(360.160292 150.414338)scale(0.1 -0.1)">
       <defs>
        <path d="M 31.78125 34.625 
Q 24.75 34.625 20.71875 30.859375 
Q 16.703125 27.09375 16.703125 20.515625 
Q 16.703125 13.921875 20.71875 10.15625 
Q 24.75 6.390625 31.78125 6.390625 
Q 38.8125 6.390625 42.859375 10.171875 
Q 46.921875 13.96875 46.921875 20.515625 
Q 46.921875 27.09375 42.890625 30.859375 
Q 38.875 34.625 31.78125 34.625 
z
M 21.921875 38.8125 
Q 15.578125 40.375 12.03125 44.71875 
Q 8.5 49.078125 8.5 55.328125 
Q 8.5 64.0625 14.71875 69.140625 
Q 20.953125 74.21875 31.78125 74.21875 
Q 42.671875 74.21875 48.875 69.140625 
Q 55.078125 64.0625 55.078125 55.328125 
Q 55.078125 49.078125 51.53125 44.71875 
Q 48 40.375 41.703125 38.8125 
Q 48.828125 37.15625 52.796875 32.3125 
Q 56.78125 27.484375 56.78125 20.515625 
Q 56.78125 9.90625 50.3125 4.234375 
Q 43.84375 -1.421875 31.78125 -1.421875 
Q 19.734375 -1.421875 13.25 4.234375 
Q 6.78125 9.90625 6.78125 20.515625 
Q 6.78125 27.484375 10.78125 32.3125 
Q 14.796875 37.15625 21.921875 38.8125 
z
M 18.3125 54.390625 
Q 18.3125 48.734375 21.84375 45.5625 
Q 25.390625 42.390625 31.78125 42.390625 
Q 38.140625 42.390625 41.71875 45.5625 
Q 45.3125 48.734375 45.3125 54.390625 
Q 45.3125 60.0625 41.71875 63.234375 
Q 38.140625 66.40625 31.78125 66.40625 
Q 25.390625 66.40625 21.84375 63.234375 
Q 18.3125 60.0625 18.3125 54.390625 
z
" id="DejaVuSans-56"/>
       </defs>
       <use xlink:href="#DejaVuSans-56"/>
       <use x="63.623047" xlink:href="#DejaVuSans-48"/>
      </g>
     </g>
    </g>
    <g id="xtick_6">
     <g id="line2d_6">
      <g>
       <use style="stroke:#000000;stroke-width:0.8;" x="442.74573" xlink:href="#ma15757c6a9" y="135.815901"/>
      </g>
     </g>
     <g id="text_6">
      <!-- 100 -->
      <g transform="translate(433.20198 150.414338)scale(0.1 -0.1)">
       <defs>
        <path d="M 12.40625 8.296875 
L 28.515625 8.296875 
L 28.515625 63.921875 
L 10.984375 60.40625 
L 10.984375 69.390625 
L 28.421875 72.90625 
L 38.28125 72.90625 
L 38.28125 8.296875 
L 54.390625 8.296875 
L 54.390625 0 
L 12.40625 0 
z
" id="DejaVuSans-49"/>
       </defs>
       <use xlink:href="#DejaVuSans-49"/>
       <use x="63.623047" xlink:href="#DejaVuSans-48"/>
       <use x="127.246094" xlink:href="#DejaVuSans-48"/>
      </g>
     </g>
    </g>
    <g id="text_7">
     <!-- Generation -->
     <g transform="translate(222.389844 164.092463)scale(0.1 -0.1)">
      <defs>
       <path d="M 59.515625 10.40625 
L 59.515625 29.984375 
L 43.40625 29.984375 
L 43.40625 38.09375 
L 69.28125 38.09375 
L 69.28125 6.78125 
Q 63.578125 2.734375 56.6875 0.65625 
Q 49.8125 -1.421875 42 -1.421875 
Q 24.90625 -1.421875 15.25 8.5625 
Q 5.609375 18.5625 5.609375 36.375 
Q 5.609375 54.25 15.25 64.234375 
Q 24.90625 74.21875 42 74.21875 
Q 49.125 74.21875 55.546875 72.453125 
Q 61.96875 70.703125 67.390625 67.28125 
L 67.390625 56.78125 
Q 61.921875 61.421875 55.765625 63.765625 
Q 49.609375 66.109375 42.828125 66.109375 
Q 29.4375 66.109375 22.71875 58.640625 
Q 16.015625 51.171875 16.015625 36.375 
Q 16.015625 21.625 22.71875 14.15625 
Q 29.4375 6.6875 42.828125 6.6875 
Q 48.046875 6.6875 52.140625 7.59375 
Q 56.25 8.5 59.515625 10.40625 
z
" id="DejaVuSans-71"/>
       <path d="M 56.203125 29.59375 
L 56.203125 25.203125 
L 14.890625 25.203125 
Q 15.484375 15.921875 20.484375 11.0625 
Q 25.484375 6.203125 34.421875 6.203125 
Q 39.59375 6.203125 44.453125 7.46875 
Q 49.3125 8.734375 54.109375 11.28125 
L 54.109375 2.78125 
Q 49.265625 0.734375 44.1875 -0.34375 
Q 39.109375 -1.421875 33.890625 -1.421875 
Q 20.796875 -1.421875 13.15625 6.1875 
Q 5.515625 13.8125 5.515625 26.8125 
Q 5.515625 40.234375 12.765625 48.109375 
Q 20.015625 56 32.328125 56 
Q 43.359375 56 49.78125 48.890625 
Q 56.203125 41.796875 56.203125 29.59375 
z
M 47.21875 32.234375 
Q 47.125 39.59375 43.09375 43.984375 
Q 39.0625 48.390625 32.421875 48.390625 
Q 24.90625 48.390625 20.390625 44.140625 
Q 15.875 39.890625 15.1875 32.171875 
z
" id="DejaVuSans-101"/>
       <path d="M 54.890625 33.015625 
L 54.890625 0 
L 45.90625 0 
L 45.90625 32.71875 
Q 45.90625 40.484375 42.875 44.328125 
Q 39.84375 48.1875 33.796875 48.1875 
Q 26.515625 48.1875 22.3125 43.546875 
Q 18.109375 38.921875 18.109375 30.90625 
L 18.109375 0 
L 9.078125 0 
L 9.078125 54.6875 
L 18.109375 54.6875 
L 18.109375 46.1875 
Q 21.34375 51.125 25.703125 53.5625 
Q 30.078125 56 35.796875 56 
Q 45.21875 56 50.046875 50.171875 
Q 54.890625 44.34375 54.890625 33.015625 
z
" id="DejaVuSans-110"/>
       <path d="M 41.109375 46.296875 
Q 39.59375 47.171875 37.8125 47.578125 
Q 36.03125 48 33.890625 48 
Q 26.265625 48 22.1875 43.046875 
Q 18.109375 38.09375 18.109375 28.8125 
L 18.109375 0 
L 9.078125 0 
L 9.078125 54.6875 
L 18.109375 54.6875 
L 18.109375 46.1875 
Q 20.953125 51.171875 25.484375 53.578125 
Q 30.03125 56 36.53125 56 
Q 37.453125 56 38.578125 55.875 
Q 39.703125 55.765625 41.0625 55.515625 
z
" id="DejaVuSans-114"/>
       <path d="M 34.28125 27.484375 
Q 23.390625 27.484375 19.1875 25 
Q 14.984375 22.515625 14.984375 16.5 
Q 14.984375 11.71875 18.140625 8.90625 
Q 21.296875 6.109375 26.703125 6.109375 
Q 34.1875 6.109375 38.703125 11.40625 
Q 43.21875 16.703125 43.21875 25.484375 
L 43.21875 27.484375 
z
M 52.203125 31.203125 
L 52.203125 0 
L 43.21875 0 
L 43.21875 8.296875 
Q 40.140625 3.328125 35.546875 0.953125 
Q 30.953125 -1.421875 24.3125 -1.421875 
Q 15.921875 -1.421875 10.953125 3.296875 
Q 6 8.015625 6 15.921875 
Q 6 25.140625 12.171875 29.828125 
Q 18.359375 34.515625 30.609375 34.515625 
L 43.21875 34.515625 
L 43.21875 35.40625 
Q 43.21875 41.609375 39.140625 45 
Q 35.0625 48.390625 27.6875 48.390625 
Q 23 48.390625 18.546875 47.265625 
Q 14.109375 46.140625 10.015625 43.890625 
L 10.015625 52.203125 
Q 14.9375 54.109375 19.578125 55.046875 
Q 24.21875 56 28.609375 56 
Q 40.484375 56 46.34375 49.84375 
Q 52.203125 43.703125 52.203125 31.203125 
z
" id="DejaVuSans-97"/>
       <path d="M 18.3125 70.21875 
L 18.3125 54.6875 
L 36.8125 54.6875 
L 36.8125 47.703125 
L 18.3125 47.703125 
L 18.3125 18.015625 
Q 18.3125 11.328125 20.140625 9.421875 
Q 21.96875 7.515625 27.59375 7.515625 
L 36.8125 7.515625 
L 36.8125 0 
L 27.59375 0 
Q 17.1875 0 13.234375 3.875 
Q 9.28125 7.765625 9.28125 18.015625 
L 9.28125 47.703125 
L 2.6875 47.703125 
L 2.6875 54.6875 
L 9.28125 54.6875 
L 9.28125 70.21875 
z
" id="DejaVuSans-116"/>
       <path d="M 9.421875 54.6875 
L 18.40625 54.6875 
L 18.40625 0 
L 9.421875 0 
z
M 9.421875 75.984375 
L 18.40625 75.984375 
L 18.40625 64.59375 
L 9.421875 64.59375 
z
" id="DejaVuSans-105"/>
       <path d="M 30.609375 48.390625 
Q 23.390625 48.390625 19.1875 42.75 
Q 14.984375 37.109375 14.984375 27.296875 
Q 14.984375 17.484375 19.15625 11.84375 
Q 23.34375 6.203125 30.609375 6.203125 
Q 37.796875 6.203125 41.984375 11.859375 
Q 46.1875 17.53125 46.1875 27.296875 
Q 46.1875 37.015625 41.984375 42.703125 
Q 37.796875 48.390625 30.609375 48.390625 
z
M 30.609375 56 
Q 42.328125 56 49.015625 48.375 
Q 55.71875 40.765625 55.71875 27.296875 
Q 55.71875 13.875 49.015625 6.21875 
Q 42.328125 -1.421875 30.609375 -1.421875 
Q 18.84375 -1.421875 12.171875 6.21875 
Q 5.515625 13.875 5.515625 27.296875 
Q 5.515625 40.765625 12.171875 48.375 
Q 18.84375 56 30.609375 56 
z
" id="DejaVuSans-111"/>
      </defs>
      <use xlink:href="#DejaVuSans-71"/>
      <use x="77.490234" xlink:href="#DejaVuSans-101"/>
      <use x="139.013672" xlink:href="#DejaVuSans-110"/>
      <use x="202.392578" xlink:href="#DejaVuSans-101"/>
      <use x="263.916016" xlink:href="#DejaVuSans-114"/>
      <use x="305.029297" xlink:href="#DejaVuSans-97"/>
      <use x="366.308594" xlink:href="#DejaVuSans-116"/>
      <use x="405.517578" xlink:href="#DejaVuSans-105"/>
      <use x="433.300781" xlink:href="#DejaVuSans-111"/>
      <use x="494.482422" xlink:href="#DejaVuSans-110"/>
     </g>
    </g>
   </g>
   <g id="matplotlib.axis_2">
    <g id="ytick_1">
     <g id="line2d_7">
      <defs>
       <path d="M 0 0 
L -3.5 0 
" id="m4ec6dab5b8" style="stroke:#000000;stroke-width:0.8;"/>
      </defs>
      <g>
       <use style="stroke:#000000;stroke-width:0.8;" x="42.765865" xlink:href="#m4ec6dab5b8" y="129.778825"/>
      </g>
     </g>
     <g id="text_8">
      <!-- 0.2 -->
      <g transform="translate(19.86274 133.578044)scale(0.1 -0.1)">
       <defs>
        <path d="M 10.6875 12.40625 
L 21 12.40625 
L 21 0 
L 10.6875 0 
z
" id="DejaVuSans-46"/>
       </defs>
       <use xlink:href="#DejaVuSans-48"/>
       <use x="63.623047" xlink:href="#DejaVuSans-46"/>
       <use x="95.410156" xlink:href="#DejaVuSans-50"/>
      </g>
     </g>
    </g>
    <g id="ytick_2">
     <g id="line2d_8">
      <g>
       <use style="stroke:#000000;stroke-width:0.8;" x="42.765865" xlink:href="#m4ec6dab5b8" y="89.531655"/>
      </g>
     </g>
     <g id="text_9">
      <!-- 0.4 -->
      <g transform="translate(19.86274 93.330874)scale(0.1 -0.1)">
       <use xlink:href="#DejaVuSans-48"/>
       <use x="63.623047" xlink:href="#DejaVuSans-46"/>
       <use x="95.410156" xlink:href="#DejaVuSans-52"/>
      </g>
     </g>
    </g>
    <g id="ytick_3">
     <g id="line2d_9">
      <g>
       <use style="stroke:#000000;stroke-width:0.8;" x="42.765865" xlink:href="#m4ec6dab5b8" y="49.284485"/>
      </g>
     </g>
     <g id="text_10">
      <!-- 0.6 -->
      <g transform="translate(19.86274 53.083704)scale(0.1 -0.1)">
       <use xlink:href="#DejaVuSans-48"/>
       <use x="63.623047" xlink:href="#DejaVuSans-46"/>
       <use x="95.410156" xlink:href="#DejaVuSans-54"/>
      </g>
     </g>
    </g>
    <g id="ytick_4">
     <g id="line2d_10">
      <g>
       <use style="stroke:#000000;stroke-width:0.8;" x="42.765865" xlink:href="#m4ec6dab5b8" y="9.037315"/>
      </g>
     </g>
     <g id="text_11">
      <!-- 0.8 -->
      <g transform="translate(19.86274 12.836534)scale(0.1 -0.1)">
       <use xlink:href="#DejaVuSans-48"/>
       <use x="63.623047" xlink:href="#DejaVuSans-46"/>
       <use x="95.410156" xlink:href="#DejaVuSans-56"/>
      </g>
     </g>
    </g>
    <g id="text_12">
     <!-- Subjective Fit. -->
     <g transform="translate(13.783053 104.565883)rotate(-90)scale(0.1 -0.1)">
      <defs>
       <path d="M 53.515625 70.515625 
L 53.515625 60.890625 
Q 47.90625 63.578125 42.921875 64.890625 
Q 37.9375 66.21875 33.296875 66.21875 
Q 25.25 66.21875 20.875 63.09375 
Q 16.5 59.96875 16.5 54.203125 
Q 16.5 49.359375 19.40625 46.890625 
Q 22.3125 44.4375 30.421875 42.921875 
L 36.375 41.703125 
Q 47.40625 39.59375 52.65625 34.296875 
Q 57.90625 29 57.90625 20.125 
Q 57.90625 9.515625 50.796875 4.046875 
Q 43.703125 -1.421875 29.984375 -1.421875 
Q 24.8125 -1.421875 18.96875 -0.25 
Q 13.140625 0.921875 6.890625 3.21875 
L 6.890625 13.375 
Q 12.890625 10.015625 18.65625 8.296875 
Q 24.421875 6.59375 29.984375 6.59375 
Q 38.421875 6.59375 43.015625 9.90625 
Q 47.609375 13.234375 47.609375 19.390625 
Q 47.609375 24.75 44.3125 27.78125 
Q 41.015625 30.8125 33.5 32.328125 
L 27.484375 33.5 
Q 16.453125 35.6875 11.515625 40.375 
Q 6.59375 45.0625 6.59375 53.421875 
Q 6.59375 63.09375 13.40625 68.65625 
Q 20.21875 74.21875 32.171875 74.21875 
Q 37.3125 74.21875 42.625 73.28125 
Q 47.953125 72.359375 53.515625 70.515625 
z
" id="DejaVuSans-83"/>
       <path d="M 8.5 21.578125 
L 8.5 54.6875 
L 17.484375 54.6875 
L 17.484375 21.921875 
Q 17.484375 14.15625 20.5 10.265625 
Q 23.53125 6.390625 29.59375 6.390625 
Q 36.859375 6.390625 41.078125 11.03125 
Q 45.3125 15.671875 45.3125 23.6875 
L 45.3125 54.6875 
L 54.296875 54.6875 
L 54.296875 0 
L 45.3125 0 
L 45.3125 8.40625 
Q 42.046875 3.421875 37.71875 1 
Q 33.40625 -1.421875 27.6875 -1.421875 
Q 18.265625 -1.421875 13.375 4.4375 
Q 8.5 10.296875 8.5 21.578125 
z
M 31.109375 56 
z
" id="DejaVuSans-117"/>
       <path d="M 48.6875 27.296875 
Q 48.6875 37.203125 44.609375 42.84375 
Q 40.53125 48.484375 33.40625 48.484375 
Q 26.265625 48.484375 22.1875 42.84375 
Q 18.109375 37.203125 18.109375 27.296875 
Q 18.109375 17.390625 22.1875 11.75 
Q 26.265625 6.109375 33.40625 6.109375 
Q 40.53125 6.109375 44.609375 11.75 
Q 48.6875 17.390625 48.6875 27.296875 
z
M 18.109375 46.390625 
Q 20.953125 51.265625 25.265625 53.625 
Q 29.59375 56 35.59375 56 
Q 45.5625 56 51.78125 48.09375 
Q 58.015625 40.1875 58.015625 27.296875 
Q 58.015625 14.40625 51.78125 6.484375 
Q 45.5625 -1.421875 35.59375 -1.421875 
Q 29.59375 -1.421875 25.265625 0.953125 
Q 20.953125 3.328125 18.109375 8.203125 
L 18.109375 0 
L 9.078125 0 
L 9.078125 75.984375 
L 18.109375 75.984375 
z
" id="DejaVuSans-98"/>
       <path d="M 9.421875 54.6875 
L 18.40625 54.6875 
L 18.40625 -0.984375 
Q 18.40625 -11.421875 14.421875 -16.109375 
Q 10.453125 -20.796875 1.609375 -20.796875 
L -1.8125 -20.796875 
L -1.8125 -13.1875 
L 0.59375 -13.1875 
Q 5.71875 -13.1875 7.5625 -10.8125 
Q 9.421875 -8.453125 9.421875 -0.984375 
z
M 9.421875 75.984375 
L 18.40625 75.984375 
L 18.40625 64.59375 
L 9.421875 64.59375 
z
" id="DejaVuSans-106"/>
       <path d="M 48.78125 52.59375 
L 48.78125 44.1875 
Q 44.96875 46.296875 41.140625 47.34375 
Q 37.3125 48.390625 33.40625 48.390625 
Q 24.65625 48.390625 19.8125 42.84375 
Q 14.984375 37.3125 14.984375 27.296875 
Q 14.984375 17.28125 19.8125 11.734375 
Q 24.65625 6.203125 33.40625 6.203125 
Q 37.3125 6.203125 41.140625 7.25 
Q 44.96875 8.296875 48.78125 10.40625 
L 48.78125 2.09375 
Q 45.015625 0.34375 40.984375 -0.53125 
Q 36.96875 -1.421875 32.421875 -1.421875 
Q 20.0625 -1.421875 12.78125 6.34375 
Q 5.515625 14.109375 5.515625 27.296875 
Q 5.515625 40.671875 12.859375 48.328125 
Q 20.21875 56 33.015625 56 
Q 37.15625 56 41.109375 55.140625 
Q 45.0625 54.296875 48.78125 52.59375 
z
" id="DejaVuSans-99"/>
       <path d="M 2.984375 54.6875 
L 12.5 54.6875 
L 29.59375 8.796875 
L 46.6875 54.6875 
L 56.203125 54.6875 
L 35.6875 0 
L 23.484375 0 
z
" id="DejaVuSans-118"/>
       <path id="DejaVuSans-32"/>
       <path d="M 9.8125 72.90625 
L 51.703125 72.90625 
L 51.703125 64.59375 
L 19.671875 64.59375 
L 19.671875 43.109375 
L 48.578125 43.109375 
L 48.578125 34.8125 
L 19.671875 34.8125 
L 19.671875 0 
L 9.8125 0 
z
" id="DejaVuSans-70"/>
      </defs>
      <use xlink:href="#DejaVuSans-83"/>
      <use x="63.476562" xlink:href="#DejaVuSans-117"/>
      <use x="126.855469" xlink:href="#DejaVuSans-98"/>
      <use x="190.332031" xlink:href="#DejaVuSans-106"/>
      <use x="218.115234" xlink:href="#DejaVuSans-101"/>
      <use x="279.638672" xlink:href="#DejaVuSans-99"/>
      <use x="334.619141" xlink:href="#DejaVuSans-116"/>
      <use x="373.828125" xlink:href="#DejaVuSans-105"/>
      <use x="401.611328" xlink:href="#DejaVuSans-118"/>
      <use x="460.791016" xlink:href="#DejaVuSans-101"/>
      <use x="522.314453" xlink:href="#DejaVuSans-32"/>
      <use x="554.101562" xlink:href="#DejaVuSans-70"/>
      <use x="604.371094" xlink:href="#DejaVuSans-105"/>
      <use x="632.154297" xlink:href="#DejaVuSans-116"/>
      <use x="671.363281" xlink:href="#DejaVuSans-46"/>
     </g>
    </g>
   </g>
   <g id="line2d_11">
    <path clip-path="url(#p2a121827ac)" d="M 61.631042 101.605806 
L 65.442189 101.605806 
L 69.253336 97.581089 
L 73.064483 113.679957 
L 76.87563 113.679957 
L 80.686776 125.754108 
L 84.497923 125.754108 
L 88.30907 121.729391 
L 92.120217 129.778825 
L 95.931364 125.754108 
L 99.742511 129.778825 
L 103.553658 121.729391 
L 107.364805 129.778825 
L 111.175951 125.754108 
L 114.987098 125.754108 
L 118.798245 125.754108 
L 122.609392 129.778825 
L 126.420539 125.754108 
L 130.231686 129.778825 
L 134.042833 125.754108 
L 137.85398 129.778825 
L 141.665126 125.754108 
L 145.476273 129.778825 
L 149.28742 125.754108 
L 153.098567 125.754108 
L 156.909714 129.778825 
L 160.720861 125.754108 
L 164.532008 129.778825 
L 168.343155 129.778825 
L 172.154302 125.754108 
L 175.965448 125.754108 
L 179.776595 129.778825 
L 183.587742 129.778825 
L 187.398889 125.754108 
L 191.210036 129.778825 
L 195.021183 125.754108 
L 198.83233 125.754108 
L 202.643477 129.778825 
L 206.454623 125.754108 
L 210.26577 121.729391 
L 214.076917 125.754108 
L 217.888064 125.754108 
L 221.699211 121.729391 
L 225.510358 117.704674 
L 229.321505 121.729391 
L 233.132652 121.729391 
L 236.943798 117.704674 
L 240.754945 121.729391 
L 244.566092 121.729391 
L 248.377239 117.704674 
L 252.188386 121.729391 
L 255.999533 125.754108 
L 259.81068 121.729391 
L 263.621827 121.729391 
L 267.432973 125.754108 
L 271.24412 125.754108 
L 275.055267 129.778825 
L 278.866414 129.778825 
L 282.677561 129.778825 
L 286.488708 129.778825 
L 290.299855 129.778825 
L 294.111002 125.754108 
L 297.922148 129.778825 
L 301.733295 125.754108 
L 305.544442 125.754108 
L 309.355589 125.754108 
L 313.166736 129.778825 
L 316.977883 129.778825 
L 320.78903 125.754108 
L 324.600177 129.778825 
L 328.411323 125.754108 
L 332.22247 125.754108 
L 336.033617 129.778825 
L 339.844764 129.778825 
L 343.655911 129.778825 
L 347.467058 129.778825 
L 351.278205 129.778825 
L 355.089352 129.778825 
L 358.900499 129.778825 
L 362.711645 129.778825 
L 366.522792 129.778825 
L 370.333939 129.778825 
L 374.145086 125.754108 
L 377.956233 125.754108 
L 381.76738 129.778825 
L 385.578527 125.754108 
L 389.389674 125.754108 
L 393.20082 129.778825 
L 397.011967 121.729391 
L 400.823114 125.754108 
L 404.634261 125.754108 
L 408.445408 125.754108 
L 412.256555 121.729391 
L 416.067702 129.778825 
L 419.878849 125.754108 
L 423.689995 125.754108 
L 427.501142 129.778825 
L 431.312289 125.754108 
L 435.123436 121.729391 
L 438.934583 117.704674 
" style="fill:none;stroke:#ff0000;stroke-linecap:square;stroke-width:1.5;"/>
   </g>
   <g id="line2d_12">
    <path clip-path="url(#p2a121827ac)" d="M 61.631042 57.333919 
L 65.442189 41.235051 
L 69.253336 45.259768 
L 73.064483 37.210334 
L 76.87563 37.210334 
L 80.686776 25.136183 
L 84.497923 21.111466 
L 88.30907 17.086749 
L 92.120217 13.062032 
L 95.931364 13.062032 
L 99.742511 17.086749 
L 103.553658 17.086749 
L 107.364805 9.037315 
L 111.175951 13.062032 
L 114.987098 13.062032 
L 118.798245 13.062032 
L 122.609392 13.062032 
L 126.420539 17.086749 
L 130.231686 13.062032 
L 134.042833 13.062032 
L 137.85398 13.062032 
L 141.665126 13.062032 
L 145.476273 13.062032 
L 149.28742 13.062032 
L 153.098567 13.062032 
L 156.909714 13.062032 
L 160.720861 13.062032 
L 164.532008 13.062032 
L 168.343155 13.062032 
L 172.154302 13.062032 
L 175.965448 13.062032 
L 179.776595 13.062032 
L 183.587742 13.062032 
L 187.398889 17.086749 
L 191.210036 17.086749 
L 195.021183 17.086749 
L 198.83233 17.086749 
L 202.643477 13.062032 
L 206.454623 13.062032 
L 210.26577 17.086749 
L 214.076917 13.062032 
L 217.888064 17.086749 
L 221.699211 17.086749 
L 225.510358 21.111466 
L 229.321505 17.086749 
L 233.132652 17.086749 
L 236.943798 21.111466 
L 240.754945 17.086749 
L 244.566092 21.111466 
L 248.377239 21.111466 
L 252.188386 17.086749 
L 255.999533 17.086749 
L 259.81068 17.086749 
L 263.621827 17.086749 
L 267.432973 21.111466 
L 271.24412 17.086749 
L 275.055267 17.086749 
L 278.866414 17.086749 
L 282.677561 17.086749 
L 286.488708 13.062032 
L 290.299855 17.086749 
L 294.111002 17.086749 
L 297.922148 13.062032 
L 301.733295 13.062032 
L 305.544442 13.062032 
L 309.355589 13.062032 
L 313.166736 13.062032 
L 316.977883 13.062032 
L 320.78903 17.086749 
L 324.600177 9.037315 
L 328.411323 13.062032 
L 332.22247 17.086749 
L 336.033617 17.086749 
L 339.844764 13.062032 
L 343.655911 13.062032 
L 347.467058 13.062032 
L 351.278205 13.062032 
L 355.089352 13.062032 
L 358.900499 17.086749 
L 362.711645 17.086749 
L 366.522792 17.086749 
L 370.333939 17.086749 
L 374.145086 17.086749 
L 377.956233 13.062032 
L 381.76738 17.086749 
L 385.578527 17.086749 
L 389.389674 13.062032 
L 393.20082 9.037315 
L 397.011967 17.086749 
L 400.823114 21.111466 
L 404.634261 21.111466 
L 408.445408 21.111466 
L 412.256555 21.111466 
L 416.067702 17.086749 
L 419.878849 21.111466 
L 423.689995 21.111466 
L 427.501142 21.111466 
L 431.312289 17.086749 
L 435.123436 21.111466 
L 438.934583 21.111466 
" style="fill:none;stroke:#00ff9f;stroke-linecap:square;stroke-width:1.5;"/>
   </g>
   <g id="patch_3">
    <path d="M 42.765865 135.815901 
L 42.765865 3.00024 
" style="fill:none;stroke:#000000;stroke-linecap:square;stroke-linejoin:miter;stroke-width:0.8;"/>
   </g>
   <g id="patch_4">
    <path d="M 457.79976 135.815901 
L 457.79976 3.00024 
" style="fill:none;stroke:#000000;stroke-linecap:square;stroke-linejoin:miter;stroke-width:0.8;"/>
   </g>
   <g id="patch_5">
    <path d="M 42.765865 135.815901 
L 457.79976 135.815901 
" style="fill:none;stroke:#000000;stroke-linecap:square;stroke-linejoin:miter;stroke-width:0.8;"/>
   </g>
   <g id="patch_6">
    <path d="M 42.765865 3.00024 
L 457.79976 3.00024 
" style="fill:none;stroke:#000000;stroke-linecap:square;stroke-linejoin:miter;stroke-width:0.8;"/>
   </g>
  </g>
  <g id="axes_2">
   <g id="patch_7">
    <path d="M 42.765865 312.24351 
L 457.79976 312.24351 
L 457.79976 179.427849 
L 42.765865 179.427849 
z
" style="fill:#ffffff;"/>
   </g>
   <g id="matplotlib.axis_3">
    <g id="xtick_7">
     <g id="line2d_13">
      <g>
       <use style="stroke:#000000;stroke-width:0.8;" x="61.631042" xlink:href="#ma15757c6a9" y="312.24351"/>
      </g>
     </g>
     <g id="text_13">
      <!-- 0 -->
      <g transform="translate(58.449792 326.841947)scale(0.1 -0.1)">
       <use xlink:href="#DejaVuSans-48"/>
      </g>
     </g>
    </g>
    <g id="xtick_8">
     <g id="line2d_14">
      <g>
       <use style="stroke:#000000;stroke-width:0.8;" x="137.85398" xlink:href="#ma15757c6a9" y="312.24351"/>
      </g>
     </g>
     <g id="text_14">
      <!-- 20 -->
      <g transform="translate(131.49148 326.841947)scale(0.1 -0.1)">
       <use xlink:href="#DejaVuSans-50"/>
       <use x="63.623047" xlink:href="#DejaVuSans-48"/>
      </g>
     </g>
    </g>
    <g id="xtick_9">
     <g id="line2d_15">
      <g>
       <use style="stroke:#000000;stroke-width:0.8;" x="214.076917" xlink:href="#ma15757c6a9" y="312.24351"/>
      </g>
     </g>
     <g id="text_15">
      <!-- 40 -->
      <g transform="translate(207.714417 326.841947)scale(0.1 -0.1)">
       <use xlink:href="#DejaVuSans-52"/>
       <use x="63.623047" xlink:href="#DejaVuSans-48"/>
      </g>
     </g>
    </g>
    <g id="xtick_10">
     <g id="line2d_16">
      <g>
       <use style="stroke:#000000;stroke-width:0.8;" x="290.299855" xlink:href="#ma15757c6a9" y="312.24351"/>
      </g>
     </g>
     <g id="text_16">
      <!-- 60 -->
      <g transform="translate(283.937355 326.841947)scale(0.1 -0.1)">
       <use xlink:href="#DejaVuSans-54"/>
       <use x="63.623047" xlink:href="#DejaVuSans-48"/>
      </g>
     </g>
    </g>
    <g id="xtick_11">
     <g id="line2d_17">
      <g>
       <use style="stroke:#000000;stroke-width:0.8;" x="366.522792" xlink:href="#ma15757c6a9" y="312.24351"/>
      </g>
     </g>
     <g id="text_17">
      <!-- 80 -->
      <g transform="translate(360.160292 326.841947)scale(0.1 -0.1)">
       <use xlink:href="#DejaVuSans-56"/>
       <use x="63.623047" xlink:href="#DejaVuSans-48"/>
      </g>
     </g>
    </g>
    <g id="xtick_12">
     <g id="line2d_18">
      <g>
       <use style="stroke:#000000;stroke-width:0.8;" x="442.74573" xlink:href="#ma15757c6a9" y="312.24351"/>
      </g>
     </g>
     <g id="text_18">
      <!-- 100 -->
      <g transform="translate(433.20198 326.841947)scale(0.1 -0.1)">
       <use xlink:href="#DejaVuSans-49"/>
       <use x="63.623047" xlink:href="#DejaVuSans-48"/>
       <use x="127.246094" xlink:href="#DejaVuSans-48"/>
      </g>
     </g>
    </g>
    <g id="text_19">
     <!-- Generation -->
     <g transform="translate(222.389844 340.520072)scale(0.1 -0.1)">
      <use xlink:href="#DejaVuSans-71"/>
      <use x="77.490234" xlink:href="#DejaVuSans-101"/>
      <use x="139.013672" xlink:href="#DejaVuSans-110"/>
      <use x="202.392578" xlink:href="#DejaVuSans-101"/>
      <use x="263.916016" xlink:href="#DejaVuSans-114"/>
      <use x="305.029297" xlink:href="#DejaVuSans-97"/>
      <use x="366.308594" xlink:href="#DejaVuSans-116"/>
      <use x="405.517578" xlink:href="#DejaVuSans-105"/>
      <use x="433.300781" xlink:href="#DejaVuSans-111"/>
      <use x="494.482422" xlink:href="#DejaVuSans-110"/>
     </g>
    </g>
   </g>
   <g id="matplotlib.axis_4">
    <g id="ytick_5">
     <g id="line2d_19">
      <g>
       <use style="stroke:#000000;stroke-width:0.8;" x="42.765865" xlink:href="#m4ec6dab5b8" y="312.24351"/>
      </g>
     </g>
     <g id="text_20">
      <!-- 0 -->
      <g transform="translate(29.403365 316.042729)scale(0.1 -0.1)">
       <use xlink:href="#DejaVuSans-48"/>
      </g>
     </g>
    </g>
    <g id="ytick_6">
     <g id="line2d_20">
      <g>
       <use style="stroke:#000000;stroke-width:0.8;" x="42.765865" xlink:href="#m4ec6dab5b8" y="285.680378"/>
      </g>
     </g>
     <g id="text_21">
      <!-- 20 -->
      <g transform="translate(23.040865 289.479597)scale(0.1 -0.1)">
       <use xlink:href="#DejaVuSans-50"/>
       <use x="63.623047" xlink:href="#DejaVuSans-48"/>
      </g>
     </g>
    </g>
    <g id="ytick_7">
     <g id="line2d_21">
      <g>
       <use style="stroke:#000000;stroke-width:0.8;" x="42.765865" xlink:href="#m4ec6dab5b8" y="259.117246"/>
      </g>
     </g>
     <g id="text_22">
      <!-- 40 -->
      <g transform="translate(23.040865 262.916464)scale(0.1 -0.1)">
       <use xlink:href="#DejaVuSans-52"/>
       <use x="63.623047" xlink:href="#DejaVuSans-48"/>
      </g>
     </g>
    </g>
    <g id="ytick_8">
     <g id="line2d_22">
      <g>
       <use style="stroke:#000000;stroke-width:0.8;" x="42.765865" xlink:href="#m4ec6dab5b8" y="232.554114"/>
      </g>
     </g>
     <g id="text_23">
      <!-- 60 -->
      <g transform="translate(23.040865 236.353332)scale(0.1 -0.1)">
       <use xlink:href="#DejaVuSans-54"/>
       <use x="63.623047" xlink:href="#DejaVuSans-48"/>
      </g>
     </g>
    </g>
    <g id="ytick_9">
     <g id="line2d_23">
      <g>
       <use style="stroke:#000000;stroke-width:0.8;" x="42.765865" xlink:href="#m4ec6dab5b8" y="205.990981"/>
      </g>
     </g>
     <g id="text_24">
      <!-- 80 -->
      <g transform="translate(23.040865 209.7902)scale(0.1 -0.1)">
       <use xlink:href="#DejaVuSans-56"/>
       <use x="63.623047" xlink:href="#DejaVuSans-48"/>
      </g>
     </g>
    </g>
    <g id="ytick_10">
     <g id="line2d_24">
      <g>
       <use style="stroke:#000000;stroke-width:0.8;" x="42.765865" xlink:href="#m4ec6dab5b8" y="179.427849"/>
      </g>
     </g>
     <g id="text_25">
      <!-- 100 -->
      <g transform="translate(16.678365 183.227068)scale(0.1 -0.1)">
       <use xlink:href="#DejaVuSans-49"/>
       <use x="63.623047" xlink:href="#DejaVuSans-48"/>
       <use x="127.246094" xlink:href="#DejaVuSans-48"/>
      </g>
     </g>
    </g>
    <g id="text_26">
     <!-- Objective Fit. -->
     <g transform="translate(10.598678 278.586461)rotate(-90)scale(0.1 -0.1)">
      <defs>
       <path d="M 39.40625 66.21875 
Q 28.65625 66.21875 22.328125 58.203125 
Q 16.015625 50.203125 16.015625 36.375 
Q 16.015625 22.609375 22.328125 14.59375 
Q 28.65625 6.59375 39.40625 6.59375 
Q 50.140625 6.59375 56.421875 14.59375 
Q 62.703125 22.609375 62.703125 36.375 
Q 62.703125 50.203125 56.421875 58.203125 
Q 50.140625 66.21875 39.40625 66.21875 
z
M 39.40625 74.21875 
Q 54.734375 74.21875 63.90625 63.9375 
Q 73.09375 53.65625 73.09375 36.375 
Q 73.09375 19.140625 63.90625 8.859375 
Q 54.734375 -1.421875 39.40625 -1.421875 
Q 24.03125 -1.421875 14.8125 8.828125 
Q 5.609375 19.09375 5.609375 36.375 
Q 5.609375 53.65625 14.8125 63.9375 
Q 24.03125 74.21875 39.40625 74.21875 
z
" id="DejaVuSans-79"/>
      </defs>
      <use xlink:href="#DejaVuSans-79"/>
      <use x="78.710938" xlink:href="#DejaVuSans-98"/>
      <use x="142.1875" xlink:href="#DejaVuSans-106"/>
      <use x="169.970703" xlink:href="#DejaVuSans-101"/>
      <use x="231.494141" xlink:href="#DejaVuSans-99"/>
      <use x="286.474609" xlink:href="#DejaVuSans-116"/>
      <use x="325.683594" xlink:href="#DejaVuSans-105"/>
      <use x="353.466797" xlink:href="#DejaVuSans-118"/>
      <use x="412.646484" xlink:href="#DejaVuSans-101"/>
      <use x="474.169922" xlink:href="#DejaVuSans-32"/>
      <use x="505.957031" xlink:href="#DejaVuSans-70"/>
      <use x="556.226562" xlink:href="#DejaVuSans-105"/>
      <use x="584.009766" xlink:href="#DejaVuSans-116"/>
      <use x="623.21875" xlink:href="#DejaVuSans-46"/>
     </g>
    </g>
   </g>
   <g id="line2d_25">
    <path clip-path="url(#p3332d7d840)" d="M 61.631042 305.523038 
L 65.442189 305.363659 
L 69.253336 304.380823 
L 73.064483 304.752707 
L 76.87563 303.105793 
L 80.686776 302.866724 
L 84.497923 301.432315 
L 88.30907 301.326063 
L 92.120217 299.785401 
L 95.931364 299.758838 
L 99.742511 298.138487 
L 103.553658 297.155651 
L 107.364805 296.225941 
L 111.175951 295.694679 
L 114.987098 294.313396 
L 118.798245 293.622754 
L 122.609392 292.028966 
L 126.420539 291.949277 
L 130.231686 290.488305 
L 134.042833 290.408615 
L 137.85398 288.735138 
L 141.665126 288.628886 
L 145.476273 287.353855 
L 149.28742 286.928845 
L 153.098567 285.175678 
L 156.909714 285.308494 
L 160.720861 283.66158 
L 164.532008 283.900648 
L 168.343155 282.73187 
L 172.154302 282.572491 
L 175.965448 281.642782 
L 179.776595 281.350587 
L 183.587742 280.022431 
L 187.398889 279.411479 
L 191.210036 278.7474 
L 195.021183 277.89738 
L 198.83233 275.958272 
L 202.643477 275.852019 
L 206.454623 274.550426 
L 210.26577 274.709804 
L 214.076917 274.125415 
L 217.888064 274.205105 
L 221.699211 272.611317 
L 225.510358 273.408211 
L 229.321505 272.026928 
L 233.132652 272.026928 
L 236.943798 270.85815 
L 240.754945 271.176908 
L 244.566092 269.928441 
L 248.377239 269.264362 
L 252.188386 268.148711 
L 255.999533 268.414342 
L 259.81068 267.272127 
L 263.621827 267.511196 
L 267.432973 266.95337 
L 271.24412 266.847117 
L 275.055267 265.784592 
L 278.866414 266.422107 
L 282.677561 265.545524 
L 286.488708 265.997097 
L 290.299855 265.147077 
L 294.111002 265.17364 
L 297.922148 264.376746 
L 301.733295 264.722067 
L 305.544442 263.606415 
L 309.355589 264.164241 
L 313.166736 263.473599 
L 316.977883 264.270493 
L 320.78903 262.782958 
L 324.600177 263.340784 
L 328.411323 262.756395 
L 332.22247 263.261094 
L 336.033617 262.517327 
L 339.844764 262.490764 
L 343.655911 262.065753 
L 347.467058 262.437637 
L 351.278205 261.986064 
L 355.089352 262.11888 
L 358.900499 260.684471 
L 362.711645 260.976665 
L 366.522792 260.684471 
L 370.333939 261.348549 
L 374.145086 260.445402 
L 377.956233 260.76416 
L 381.76738 260.046955 
L 385.578527 260.445402 
L 389.389674 260.020392 
L 393.20082 259.91414 
L 397.011967 259.621945 
L 400.823114 260.33915 
L 404.634261 259.117246 
L 408.445408 260.046955 
L 412.256555 259.170372 
L 416.067702 259.621945 
L 419.878849 258.665673 
L 423.689995 259.462566 
L 427.501142 258.373478 
L 431.312289 259.250061 
L 435.123436 259.064119 
L 438.934583 259.303188 
" style="fill:none;stroke:#ff0000;stroke-linecap:square;stroke-width:1.5;"/>
   </g>
   <g id="line2d_26">
    <path clip-path="url(#p3332d7d840)" d="M 61.631042 303.902687 
L 65.442189 302.176083 
L 69.253336 301.671383 
L 73.064483 299.811964 
L 76.87563 298.749439 
L 80.686776 296.252504 
L 84.497923 294.499338 
L 88.30907 292.507103 
L 92.120217 290.966441 
L 95.931364 289.478906 
L 99.742511 287.433545 
L 103.553658 285.069426 
L 107.364805 283.58189 
L 111.175951 281.509966 
L 114.987098 280.208373 
L 118.798245 278.109885 
L 122.609392 276.54266 
L 126.420539 274.231668 
L 130.231686 272.850385 
L 134.042833 270.592519 
L 137.85398 269.290925 
L 141.665126 266.979933 
L 145.476273 266.156476 
L 149.28742 264.403309 
L 153.098567 263.048589 
L 156.909714 260.790723 
L 160.720861 259.542256 
L 164.532008 257.735963 
L 168.343155 256.195301 
L 172.154302 254.203066 
L 175.965448 252.635842 
L 179.776595 250.324849 
L 183.587742 248.757624 
L 187.398889 246.951331 
L 191.210036 245.357543 
L 195.021183 243.20593 
L 198.83233 241.559015 
L 202.643477 239.274586 
L 206.454623 238.398003 
L 210.26577 236.458894 
L 214.076917 234.997922 
L 217.888064 233.138503 
L 221.699211 232.10254 
L 225.510358 229.950927 
L 229.321505 228.436828 
L 233.132652 226.41803 
L 236.943798 225.116437 
L 240.754945 223.389833 
L 244.566092 222.646065 
L 248.377239 220.680394 
L 252.188386 219.8835 
L 255.999533 217.864702 
L 259.81068 216.722487 
L 263.621827 215.553709 
L 267.432973 214.677126 
L 271.24412 213.906795 
L 275.055267 213.003648 
L 278.866414 211.755181 
L 282.677561 211.277045 
L 286.488708 210.294209 
L 290.299855 209.869199 
L 294.111002 209.178557 
L 297.922148 208.886363 
L 301.733295 208.062906 
L 305.544442 207.797274 
L 309.355589 207.026944 
L 313.166736 206.947254 
L 316.977883 206.070671 
L 320.78903 206.336302 
L 324.600177 206.044108 
L 328.411323 205.990981 
L 332.22247 205.964418 
L 336.033617 205.911292 
L 339.844764 205.167524 
L 343.655911 205.433156 
L 347.467058 205.220651 
L 351.278205 205.087835 
L 355.089352 204.742514 
L 358.900499 204.769077 
L 362.711645 204.423757 
L 366.522792 204.981582 
L 370.333939 204.609699 
L 374.145086 205.140961 
L 377.956233 204.556572 
L 381.76738 205.194088 
L 385.578527 204.769077 
L 389.389674 204.87533 
L 393.20082 204.981582 
L 397.011967 204.981582 
L 400.823114 204.290941 
L 404.634261 204.662825 
L 408.445408 204.45032 
L 412.256555 204.955019 
L 416.067702 204.530009 
L 419.878849 204.848767 
L 423.689995 204.158125 
L 427.501142 204.317504 
L 431.312289 204.184689 
L 435.123436 204.317504 
L 438.934583 204.290941 
" style="fill:none;stroke:#00ff9f;stroke-linecap:square;stroke-width:1.5;"/>
   </g>
   <g id="patch_8">
    <path d="M 42.765865 312.24351 
L 42.765865 179.427849 
" style="fill:none;stroke:#000000;stroke-linecap:square;stroke-linejoin:miter;stroke-width:0.8;"/>
   </g>
   <g id="patch_9">
    <path d="M 457.79976 312.24351 
L 457.79976 179.427849 
" style="fill:none;stroke:#000000;stroke-linecap:square;stroke-linejoin:miter;stroke-width:0.8;"/>
   </g>
   <g id="patch_10">
    <path d="M 42.765865 312.24351 
L 457.79976 312.24351 
" style="fill:none;stroke:#000000;stroke-linecap:square;stroke-linejoin:miter;stroke-width:0.8;"/>
   </g>
   <g id="patch_11">
    <path d="M 42.765865 179.427849 
L 457.79976 179.427849 
" style="fill:none;stroke:#000000;stroke-linecap:square;stroke-linejoin:miter;stroke-width:0.8;"/>
   </g>
  </g>
 </g>
 <defs>
  <clipPath id="p2a121827ac">
   <rect height="132.815661" width="415.033895" x="42.765865" y="3.00024"/>
  </clipPath>
  <clipPath id="p3332d7d840">
   <rect height="132.815661" width="415.033895" x="42.765865" y="179.427849"/>
  </clipPath>
 </defs>
</svg>
